ply
format ascii 1.0
comment procedurally generated object
element vertex 486
property float x
property float y
property float z
property uchar red
property uchar green
property uchar blue
element face 480
property list uchar int vertex_indices
end_header
1.10000 0.13000 0.00000 150 152 158
-1.10000 0.13000 0.00000 150 152 158
1.10000 0.12840 0.02034 150 152 158
-1.10000 0.12840 0.02034 150 152 158
1.10000 0.12364 0.04017 150 152 158
-1.10000 0.12364 0.04017 150 152 158
1.10000 0.11583 0.05902 150 152 158
-1.10000 0.11583 0.05902 150 152 158
1.10000 0.10517 0.07641 150 152 158
-1.10000 0.10517 0.07641 150 152 158
1.10000 0.09192 0.09192 150 152 158
-1.10000 0.09192 0.09192 150 152 158
1.10000 0.07641 0.10517 150 152 158
-1.10000 0.07641 0.10517 150 152 158
1.10000 0.05902 0.11583 150 152 158
-1.10000 0.05902 0.11583 150 152 158
1.10000 0.04017 0.12364 150 152 158
-1.10000 0.04017 0.12364 150 152 158
1.10000 0.02034 0.12840 150 152 158
-1.10000 0.02034 0.12840 150 152 158
1.10000 -0.00000 0.13000 150 152 158
-1.10000 0.00000 0.13000 150 152 158
1.10000 -0.02034 0.12840 150 152 158
-1.10000 -0.02034 0.12840 150 152 158
1.10000 -0.04017 0.12364 150 152 158
-1.10000 -0.04017 0.12364 150 152 158
1.10000 -0.05902 0.11583 150 152 158
-1.10000 -0.05902 0.11583 150 152 158
1.10000 -0.07641 0.10517 150 152 158
-1.10000 -0.07641 0.10517 150 152 158
1.10000 -0.09192 0.09192 150 152 158
-1.10000 -0.09192 0.09192 150 152 158
1.10000 -0.10517 0.07641 150 152 158
-1.10000 -0.10517 0.07641 150 152 158
1.10000 -0.11583 0.05902 150 152 158
-1.10000 -0.11583 0.05902 150 152 158
1.10000 -0.12364 0.04017 150 152 158
-1.10000 -0.12364 0.04017 150 152 158
1.10000 -0.12840 0.02034 150 152 158
-1.10000 -0.12840 0.02034 150 152 158
1.10000 -0.13000 0.00000 150 152 158
-1.10000 -0.13000 0.00000 150 152 158
1.10000 -0.12840 -0.02034 150 152 158
-1.10000 -0.12840 -0.02034 150 152 158
1.10000 -0.12364 -0.04017 150 152 158
-1.10000 -0.12364 -0.04017 150 152 158
1.10000 -0.11583 -0.05902 150 152 158
-1.10000 -0.11583 -0.05902 150 152 158
1.10000 -0.10517 -0.07641 150 152 158
-1.10000 -0.10517 -0.07641 150 152 158
1.10000 -0.09192 -0.09192 150 152 158
-1.10000 -0.09192 -0.09192 150 152 158
1.10000 -0.07641 -0.10517 150 152 158
-1.10000 -0.07641 -0.10517 150 152 158
1.10000 -0.05902 -0.11583 150 152 158
-1.10000 -0.05902 -0.11583 150 152 158
1.10000 -0.04017 -0.12364 150 152 158
-1.10000 -0.04017 -0.12364 150 152 158
1.10000 -0.02034 -0.12840 150 152 158
-1.10000 -0.02034 -0.12840 150 152 158
1.10000 -0.00000 -0.13000 150 152 158
-1.10000 0.00000 -0.13000 150 152 158
1.10000 0.02034 -0.12840 150 152 158
-1.10000 0.02034 -0.12840 150 152 158
1.10000 0.04017 -0.12364 150 152 158
-1.10000 0.04017 -0.12364 150 152 158
1.10000 0.05902 -0.11583 150 152 158
-1.10000 0.05902 -0.11583 150 152 158
1.10000 0.07641 -0.10517 150 152 158
-1.10000 0.07641 -0.10517 150 152 158
1.10000 0.09192 -0.09192 150 152 158
-1.10000 0.09192 -0.09192 150 152 158
1.10000 0.10517 -0.07641 150 152 158
-1.10000 0.10517 -0.07641 150 152 158
1.10000 0.11583 -0.05902 150 152 158
-1.10000 0.11583 -0.05902 150 152 158
1.10000 0.12364 -0.04017 150 152 158
-1.10000 0.12364 -0.04017 150 152 158
1.10000 0.12840 -0.02034 150 152 158
-1.10000 0.12840 -0.02034 150 152 158
1.10000 -0.00000 0.00000 150 152 158
-1.10000 0.00000 0.00000 150 152 158
1.10000 0.13000 0.00000 150 152 158
1.10000 0.12840 0.02034 150 152 158
1.10000 0.12364 0.04017 150 152 158
1.10000 0.11583 0.05902 150 152 158
1.10000 0.10517 0.07641 150 152 158
1.10000 0.09192 0.09192 150 152 158
1.10000 0.07641 0.10517 150 152 158
1.10000 0.05902 0.11583 150 152 158
1.10000 0.04017 0.12364 150 152 158
1.10000 0.02034 0.12840 150 152 158
1.10000 -0.00000 0.13000 150 152 158
1.10000 -0.02034 0.12840 150 152 158
1.10000 -0.04017 0.12364 150 152 158
1.10000 -0.05902 0.11583 150 152 158
1.10000 -0.07641 0.10517 150 152 158
1.10000 -0.09192 0.09192 150 152 158
1.10000 -0.10517 0.07641 150 152 158
1.10000 -0.11583 0.05902 150 152 158
1.10000 -0.12364 0.04017 150 152 158
1.10000 -0.12840 0.02034 150 152 158
1.10000 -0.13000 0.00000 150 152 158
1.10000 -0.12840 -0.02034 150 152 158
1.10000 -0.12364 -0.04017 150 152 158
1.10000 -0.11583 -0.05902 150 152 158
1.10000 -0.10517 -0.07641 150 152 158
1.10000 -0.09192 -0.09192 150 152 158
1.10000 -0.07641 -0.10517 150 152 158
1.10000 -0.05902 -0.11583 150 152 158
1.10000 -0.04017 -0.12364 150 152 158
1.10000 -0.02034 -0.12840 150 152 158
1.10000 -0.00000 -0.13000 150 152 158
1.10000 0.02034 -0.12840 150 152 158
1.10000 0.04017 -0.12364 150 152 158
1.10000 0.05902 -0.11583 150 152 158
1.10000 0.07641 -0.10517 150 152 158
1.10000 0.09192 -0.09192 150 152 158
1.10000 0.10517 -0.07641 150 152 158
1.10000 0.11583 -0.05902 150 152 158
1.10000 0.12364 -0.04017 150 152 158
1.10000 0.12840 -0.02034 150 152 158
-1.10000 0.13000 0.00000 150 152 158
-1.10000 0.12840 0.02034 150 152 158
-1.10000 0.12364 0.04017 150 152 158
-1.10000 0.11583 0.05902 150 152 158
-1.10000 0.10517 0.07641 150 152 158
-1.10000 0.09192 0.09192 150 152 158
-1.10000 0.07641 0.10517 150 152 158
-1.10000 0.05902 0.11583 150 152 158
-1.10000 0.04017 0.12364 150 152 158
-1.10000 0.02034 0.12840 150 152 158
-1.10000 0.00000 0.13000 150 152 158
-1.10000 -0.02034 0.12840 150 152 158
-1.10000 -0.04017 0.12364 150 152 158
-1.10000 -0.05902 0.11583 150 152 158
-1.10000 -0.07641 0.10517 150 152 158
-1.10000 -0.09192 0.09192 150 152 158
-1.10000 -0.10517 0.07641 150 152 158
-1.10000 -0.11583 0.05902 150 152 158
-1.10000 -0.12364 0.04017 150 152 158
-1.10000 -0.12840 0.02034 150 152 158
-1.10000 -0.13000 0.00000 150 152 158
-1.10000 -0.12840 -0.02034 150 152 158
-1.10000 -0.12364 -0.04017 150 152 158
-1.10000 -0.11583 -0.05902 150 152 158
-1.10000 -0.10517 -0.07641 150 152 158
-1.10000 -0.09192 -0.09192 150 152 158
-1.10000 -0.07641 -0.10517 150 152 158
-1.10000 -0.05902 -0.11583 150 152 158
-1.10000 -0.04017 -0.12364 150 152 158
-1.10000 -0.02034 -0.12840 150 152 158
-1.10000 0.00000 -0.13000 150 152 158
-1.10000 0.02034 -0.12840 150 152 158
-1.10000 0.04017 -0.12364 150 152 158
-1.10000 0.05902 -0.11583 150 152 158
-1.10000 0.07641 -0.10517 150 152 158
-1.10000 0.09192 -0.09192 150 152 158
-1.10000 0.10517 -0.07641 150 152 158
-1.10000 0.11583 -0.05902 150 152 158
-1.10000 0.12364 -0.04017 150 152 158
-1.10000 0.12840 -0.02034 150 152 158
1.15000 0.50000 0.00000 40 40 46
0.73000 0.50000 0.00000 40 40 46
1.15000 0.49384 0.07822 40 40 46
0.73000 0.49384 0.07822 40 40 46
1.15000 0.47553 0.15451 40 40 46
0.73000 0.47553 0.15451 40 40 46
1.15000 0.44550 0.22700 40 40 46
0.73000 0.44550 0.22700 40 40 46
1.15000 0.40451 0.29389 40 40 46
0.73000 0.40451 0.29389 40 40 46
1.15000 0.35355 0.35355 40 40 46
0.73000 0.35355 0.35355 40 40 46
1.15000 0.29389 0.40451 40 40 46
0.73000 0.29389 0.40451 40 40 46
1.15000 0.22700 0.44550 40 40 46
0.73000 0.22700 0.44550 40 40 46
1.15000 0.15451 0.47553 40 40 46
0.73000 0.15451 0.47553 40 40 46
1.15000 0.07822 0.49384 40 40 46
0.73000 0.07822 0.49384 40 40 46
1.15000 -0.00000 0.50000 40 40 46
0.73000 -0.00000 0.50000 40 40 46
1.15000 -0.07822 0.49384 40 40 46
0.73000 -0.07822 0.49384 40 40 46
1.15000 -0.15451 0.47553 40 40 46
0.73000 -0.15451 0.47553 40 40 46
1.15000 -0.22700 0.44550 40 40 46
0.73000 -0.22700 0.44550 40 40 46
1.15000 -0.29389 0.40451 40 40 46
0.73000 -0.29389 0.40451 40 40 46
1.15000 -0.35355 0.35355 40 40 46
0.73000 -0.35355 0.35355 40 40 46
1.15000 -0.40451 0.29389 40 40 46
0.73000 -0.40451 0.29389 40 40 46
1.15000 -0.44550 0.22700 40 40 46
0.73000 -0.44550 0.22700 40 40 46
1.15000 -0.47553 0.15451 40 40 46
0.73000 -0.47553 0.15451 40 40 46
1.15000 -0.49384 0.07822 40 40 46
0.73000 -0.49384 0.07822 40 40 46
1.15000 -0.50000 0.00000 40 40 46
0.73000 -0.50000 0.00000 40 40 46
1.15000 -0.49384 -0.07822 40 40 46
0.73000 -0.49384 -0.07822 40 40 46
1.15000 -0.47553 -0.15451 40 40 46
0.73000 -0.47553 -0.15451 40 40 46
1.15000 -0.44550 -0.22700 40 40 46
0.73000 -0.44550 -0.22700 40 40 46
1.15000 -0.40451 -0.29389 40 40 46
0.73000 -0.40451 -0.29389 40 40 46
1.15000 -0.35355 -0.35355 40 40 46
0.73000 -0.35355 -0.35355 40 40 46
1.15000 -0.29389 -0.40451 40 40 46
0.73000 -0.29389 -0.40451 40 40 46
1.15000 -0.22700 -0.44550 40 40 46
0.73000 -0.22700 -0.44550 40 40 46
1.15000 -0.15451 -0.47553 40 40 46
0.73000 -0.15451 -0.47553 40 40 46
1.15000 -0.07822 -0.49384 40 40 46
0.73000 -0.07822 -0.49384 40 40 46
1.15000 -0.00000 -0.50000 40 40 46
0.73000 -0.00000 -0.50000 40 40 46
1.15000 0.07822 -0.49384 40 40 46
0.73000 0.07822 -0.49384 40 40 46
1.15000 0.15451 -0.47553 40 40 46
0.73000 0.15451 -0.47553 40 40 46
1.15000 0.22700 -0.44550 40 40 46
0.73000 0.22700 -0.44550 40 40 46
1.15000 0.29389 -0.40451 40 40 46
0.73000 0.29389 -0.40451 40 40 46
1.15000 0.35355 -0.35355 40 40 46
0.73000 0.35355 -0.35355 40 40 46
1.15000 0.40451 -0.29389 40 40 46
0.73000 0.40451 -0.29389 40 40 46
1.15000 0.44550 -0.22700 40 40 46
0.73000 0.44550 -0.22700 40 40 46
1.15000 0.47553 -0.15451 40 40 46
0.73000 0.47553 -0.15451 40 40 46
1.15000 0.49384 -0.07822 40 40 46
0.73000 0.49384 -0.07822 40 40 46
1.15000 -0.00000 0.00000 40 40 46
0.73000 -0.00000 0.00000 40 40 46
1.15000 0.50000 0.00000 40 40 46
1.15000 0.49384 0.07822 40 40 46
1.15000 0.47553 0.15451 40 40 46
1.15000 0.44550 0.22700 40 40 46
1.15000 0.40451 0.29389 40 40 46
1.15000 0.35355 0.35355 40 40 46
1.15000 0.29389 0.40451 40 40 46
1.15000 0.22700 0.44550 40 40 46
1.15000 0.15451 0.47553 40 40 46
1.15000 0.07822 0.49384 40 40 46
1.15000 -0.00000 0.50000 40 40 46
1.15000 -0.07822 0.49384 40 40 46
1.15000 -0.15451 0.47553 40 40 46
1.15000 -0.22700 0.44550 40 40 46
1.15000 -0.29389 0.40451 40 40 46
1.15000 -0.35355 0.35355 40 40 46
1.15000 -0.40451 0.29389 40 40 46
1.15000 -0.44550 0.22700 40 40 46
1.15000 -0.47553 0.15451 40 40 46
1.15000 -0.49384 0.07822 40 40 46
1.15000 -0.50000 0.00000 40 40 46
1.15000 -0.49384 -0.07822 40 40 46
1.15000 -0.47553 -0.15451 40 40 46
1.15000 -0.44550 -0.22700 40 40 46
1.15000 -0.40451 -0.29389 40 40 46
1.15000 -0.35355 -0.35355 40 40 46
1.15000 -0.29389 -0.40451 40 40 46
1.15000 -0.22700 -0.44550 40 40 46
1.15000 -0.15451 -0.47553 40 40 46
1.15000 -0.07822 -0.49384 40 40 46
1.15000 -0.00000 -0.50000 40 40 46
1.15000 0.07822 -0.49384 40 40 46
1.15000 0.15451 -0.47553 40 40 46
1.15000 0.22700 -0.44550 40 40 46
1.15000 0.29389 -0.40451 40 40 46
1.15000 0.35355 -0.35355 40 40 46
1.15000 0.40451 -0.29389 40 40 46
1.15000 0.44550 -0.22700 40 40 46
1.15000 0.47553 -0.15451 40 40 46
1.15000 0.49384 -0.07822 40 40 46
0.73000 0.50000 0.00000 40 40 46
0.73000 0.49384 0.07822 40 40 46
0.73000 0.47553 0.15451 40 40 46
0.73000 0.44550 0.22700 40 40 46
0.73000 0.40451 0.29389 40 40 46
0.73000 0.35355 0.35355 40 40 46
0.73000 0.29389 0.40451 40 40 46
0.73000 0.22700 0.44550 40 40 46
0.73000 0.15451 0.47553 40 40 46
0.73000 0.07822 0.49384 40 40 46
0.73000 -0.00000 0.50000 40 40 46
0.73000 -0.07822 0.49384 40 40 46
0.73000 -0.15451 0.47553 40 40 46
0.73000 -0.22700 0.44550 40 40 46
0.73000 -0.29389 0.40451 40 40 46
0.73000 -0.35355 0.35355 40 40 46
0.73000 -0.40451 0.29389 40 40 46
0.73000 -0.44550 0.22700 40 40 46
0.73000 -0.47553 0.15451 40 40 46
0.73000 -0.49384 0.07822 40 40 46
0.73000 -0.50000 0.00000 40 40 46
0.73000 -0.49384 -0.07822 40 40 46
0.73000 -0.47553 -0.15451 40 40 46
0.73000 -0.44550 -0.22700 40 40 46
0.73000 -0.40451 -0.29389 40 40 46
0.73000 -0.35355 -0.35355 40 40 46
0.73000 -0.29389 -0.40451 40 40 46
0.73000 -0.22700 -0.44550 40 40 46
0.73000 -0.15451 -0.47553 40 40 46
0.73000 -0.07822 -0.49384 40 40 46
0.73000 -0.00000 -0.50000 40 40 46
0.73000 0.07822 -0.49384 40 40 46
0.73000 0.15451 -0.47553 40 40 46
0.73000 0.22700 -0.44550 40 40 46
0.73000 0.29389 -0.40451 40 40 46
0.73000 0.35355 -0.35355 40 40 46
0.73000 0.40451 -0.29389 40 40 46
0.73000 0.44550 -0.22700 40 40 46
0.73000 0.47553 -0.15451 40 40 46
0.73000 0.49384 -0.07822 40 40 46
-0.73000 0.50000 0.00000 40 40 46
-1.15000 0.50000 0.00000 40 40 46
-0.73000 0.49384 0.07822 40 40 46
-1.15000 0.49384 0.07822 40 40 46
-0.73000 0.47553 0.15451 40 40 46
-1.15000 0.47553 0.15451 40 40 46
-0.73000 0.44550 0.22700 40 40 46
-1.15000 0.44550 0.22700 40 40 46
-0.73000 0.40451 0.29389 40 40 46
-1.15000 0.40451 0.29389 40 40 46
-0.73000 0.35355 0.35355 40 40 46
-1.15000 0.35355 0.35355 40 40 46
-0.73000 0.29389 0.40451 40 40 46
-1.15000 0.29389 0.40451 40 40 46
-0.73000 0.22700 0.44550 40 40 46
-1.15000 0.22700 0.44550 40 40 46
-0.73000 0.15451 0.47553 40 40 46
-1.15000 0.15451 0.47553 40 40 46
-0.73000 0.07822 0.49384 40 40 46
-1.15000 0.07822 0.49384 40 40 46
-0.73000 0.00000 0.50000 40 40 46
-1.15000 0.00000 0.50000 40 40 46
-0.73000 -0.07822 0.49384 40 40 46
-1.15000 -0.07822 0.49384 40 40 46
-0.73000 -0.15451 0.47553 40 40 46
-1.15000 -0.15451 0.47553 40 40 46
-0.73000 -0.22700 0.44550 40 40 46
-1.15000 -0.22700 0.44550 40 40 46
-0.73000 -0.29389 0.40451 40 40 46
-1.15000 -0.29389 0.40451 40 40 46
-0.73000 -0.35355 0.35355 40 40 46
-1.15000 -0.35355 0.35355 40 40 46
-0.73000 -0.40451 0.29389 40 40 46
-1.15000 -0.40451 0.29389 40 40 46
-0.73000 -0.44550 0.22700 40 40 46
-1.15000 -0.44550 0.22700 40 40 46
-0.73000 -0.47553 0.15451 40 40 46
-1.15000 -0.47553 0.15451 40 40 46
-0.73000 -0.49384 0.07822 40 40 46
-1.15000 -0.49384 0.07822 40 40 46
-0.73000 -0.50000 0.00000 40 40 46
-1.15000 -0.50000 0.00000 40 40 46
-0.73000 -0.49384 -0.07822 40 40 46
-1.15000 -0.49384 -0.07822 40 40 46
-0.73000 -0.47553 -0.15451 40 40 46
-1.15000 -0.47553 -0.15451 40 40 46
-0.73000 -0.44550 -0.22700 40 40 46
-1.15000 -0.44550 -0.22700 40 40 46
-0.73000 -0.40451 -0.29389 40 40 46
-1.15000 -0.40451 -0.29389 40 40 46
-0.73000 -0.35355 -0.35355 40 40 46
-1.15000 -0.35355 -0.35355 40 40 46
-0.73000 -0.29389 -0.40451 40 40 46
-1.15000 -0.29389 -0.40451 40 40 46
-0.73000 -0.22700 -0.44550 40 40 46
-1.15000 -0.22700 -0.44550 40 40 46
-0.73000 -0.15451 -0.47553 40 40 46
-1.15000 -0.15451 -0.47553 40 40 46
-0.73000 -0.07822 -0.49384 40 40 46
-1.15000 -0.07822 -0.49384 40 40 46
-0.73000 -0.00000 -0.50000 40 40 46
-1.15000 -0.00000 -0.50000 40 40 46
-0.73000 0.07822 -0.49384 40 40 46
-1.15000 0.07822 -0.49384 40 40 46
-0.73000 0.15451 -0.47553 40 40 46
-1.15000 0.15451 -0.47553 40 40 46
-0.73000 0.22700 -0.44550 40 40 46
-1.15000 0.22700 -0.44550 40 40 46
-0.73000 0.29389 -0.40451 40 40 46
-1.15000 0.29389 -0.40451 40 40 46
-0.73000 0.35355 -0.35355 40 40 46
-1.15000 0.35355 -0.35355 40 40 46
-0.73000 0.40451 -0.29389 40 40 46
-1.15000 0.40451 -0.29389 40 40 46
-0.73000 0.44550 -0.22700 40 40 46
-1.15000 0.44550 -0.22700 40 40 46
-0.73000 0.47553 -0.15451 40 40 46
-1.15000 0.47553 -0.15451 40 40 46
-0.73000 0.49384 -0.07822 40 40 46
-1.15000 0.49384 -0.07822 40 40 46
-0.73000 0.00000 0.00000 40 40 46
-1.15000 0.00000 0.00000 40 40 46
-0.73000 0.50000 0.00000 40 40 46
-0.73000 0.49384 0.07822 40 40 46
-0.73000 0.47553 0.15451 40 40 46
-0.73000 0.44550 0.22700 40 40 46
-0.73000 0.40451 0.29389 40 40 46
-0.73000 0.35355 0.35355 40 40 46
-0.73000 0.29389 0.40451 40 40 46
-0.73000 0.22700 0.44550 40 40 46
-0.73000 0.15451 0.47553 40 40 46
-0.73000 0.07822 0.49384 40 40 46
-0.73000 0.00000 0.50000 40 40 46
-0.73000 -0.07822 0.49384 40 40 46
-0.73000 -0.15451 0.47553 40 40 46
-0.73000 -0.22700 0.44550 40 40 46
-0.73000 -0.29389 0.40451 40 40 46
-0.73000 -0.35355 0.35355 40 40 46
-0.73000 -0.40451 0.29389 40 40 46
-0.73000 -0.44550 0.22700 40 40 46
-0.73000 -0.47553 0.15451 40 40 46
-0.73000 -0.49384 0.07822 40 40 46
-0.73000 -0.50000 0.00000 40 40 46
-0.73000 -0.49384 -0.07822 40 40 46
-0.73000 -0.47553 -0.15451 40 40 46
-0.73000 -0.44550 -0.22700 40 40 46
-0.73000 -0.40451 -0.29389 40 40 46
-0.73000 -0.35355 -0.35355 40 40 46
-0.73000 -0.29389 -0.40451 40 40 46
-0.73000 -0.22700 -0.44550 40 40 46
-0.73000 -0.15451 -0.47553 40 40 46
-0.73000 -0.07822 -0.49384 40 40 46
-0.73000 -0.00000 -0.50000 40 40 46
-0.73000 0.07822 -0.49384 40 40 46
-0.73000 0.15451 -0.47553 40 40 46
-0.73000 0.22700 -0.44550 40 40 46
-0.73000 0.29389 -0.40451 40 40 46
-0.73000 0.35355 -0.35355 40 40 46
-0.73000 0.40451 -0.29389 40 40 46
-0.73000 0.44550 -0.22700 40 40 46
-0.73000 0.47553 -0.15451 40 40 46
-0.73000 0.49384 -0.07822 40 40 46
-1.15000 0.50000 0.00000 40 40 46
-1.15000 0.49384 0.07822 40 40 46
-1.15000 0.47553 0.15451 40 40 46
-1.15000 0.44550 0.22700 40 40 46
-1.15000 0.40451 0.29389 40 40 46
-1.15000 0.35355 0.35355 40 40 46
-1.15000 0.29389 0.40451 40 40 46
-1.15000 0.22700 0.44550 40 40 46
-1.15000 0.15451 0.47553 40 40 46
-1.15000 0.07822 0.49384 40 40 46
-1.15000 0.00000 0.50000 40 40 46
-1.15000 -0.07822 0.49384 40 40 46
-1.15000 -0.15451 0.47553 40 40 46
-1.15000 -0.22700 0.44550 40 40 46
-1.15000 -0.29389 0.40451 40 40 46
-1.15000 -0.35355 0.35355 40 40 46
-1.15000 -0.40451 0.29389 40 40 46
-1.15000 -0.44550 0.22700 40 40 46
-1.15000 -0.47553 0.15451 40 40 46
-1.15000 -0.49384 0.07822 40 40 46
-1.15000 -0.50000 0.00000 40 40 46
-1.15000 -0.49384 -0.07822 40 40 46
-1.15000 -0.47553 -0.15451 40 40 46
-1.15000 -0.44550 -0.22700 40 40 46
-1.15000 -0.40451 -0.29389 40 40 46
-1.15000 -0.35355 -0.35355 40 40 46
-1.15000 -0.29389 -0.40451 40 40 46
-1.15000 -0.22700 -0.44550 40 40 46
-1.15000 -0.15451 -0.47553 40 40 46
-1.15000 -0.07822 -0.49384 40 40 46
-1.15000 -0.00000 -0.50000 40 40 46
-1.15000 0.07822 -0.49384 40 40 46
-1.15000 0.15451 -0.47553 40 40 46
-1.15000 0.22700 -0.44550 40 40 46
-1.15000 0.29389 -0.40451 40 40 46
-1.15000 0.35355 -0.35355 40 40 46
-1.15000 0.40451 -0.29389 40 40 46
-1.15000 0.44550 -0.22700 40 40 46
-1.15000 0.47553 -0.15451 40 40 46
-1.15000 0.49384 -0.07822 40 40 46
3 0 1 3
3 0 3 2
3 2 3 5
3 2 5 4
3 4 5 7
3 4 7 6
3 6 7 9
3 6 9 8
3 8 9 11
3 8 11 10
3 10 11 13
3 10 13 12
3 12 13 15
3 12 15 14
3 14 15 17
3 14 17 16
3 16 17 19
3 16 19 18
3 18 19 21
3 18 21 20
3 20 21 23
3 20 23 22
3 22 23 25
3 22 25 24
3 24 25 27
3 24 27 26
3 26 27 29
3 26 29 28
3 28 29 31
3 28 31 30
3 30 31 33
3 30 33 32
3 32 33 35
3 32 35 34
3 34 35 37
3 34 37 36
3 36 37 39
3 36 39 38
3 38 39 41
3 38 41 40
3 40 41 43
3 40 43 42
3 42 43 45
3 42 45 44
3 44 45 47
3 44 47 46
3 46 47 49
3 46 49 48
3 48 49 51
3 48 51 50
3 50 51 53
3 50 53 52
3 52 53 55
3 52 55 54
3 54 55 57
3 54 57 56
3 56 57 59
3 56 59 58
3 58 59 61
3 58 61 60
3 60 61 63
3 60 63 62
3 62 63 65
3 62 65 64
3 64 65 67
3 64 67 66
3 66 67 69
3 66 69 68
3 68 69 71
3 68 71 70
3 70 71 73
3 70 73 72
3 72 73 75
3 72 75 74
3 74 75 77
3 74 77 76
3 76 77 79
3 76 79 78
3 78 79 1
3 78 1 0
3 80 83 82
3 81 122 123
3 80 84 83
3 81 123 124
3 80 85 84
3 81 124 125
3 80 86 85
3 81 125 126
3 80 87 86
3 81 126 127
3 80 88 87
3 81 127 128
3 80 89 88
3 81 128 129
3 80 90 89
3 81 129 130
3 80 91 90
3 81 130 131
3 80 92 91
3 81 131 132
3 80 93 92
3 81 132 133
3 80 94 93
3 81 133 134
3 80 95 94
3 81 134 135
3 80 96 95
3 81 135 136
3 80 97 96
3 81 136 137
3 80 98 97
3 81 137 138
3 80 99 98
3 81 138 139
3 80 100 99
3 81 139 140
3 80 101 100
3 81 140 141
3 80 102 101
3 81 141 142
3 80 103 102
3 81 142 143
3 80 104 103
3 81 143 144
3 80 105 104
3 81 144 145
3 80 106 105
3 81 145 146
3 80 107 106
3 81 146 147
3 80 108 107
3 81 147 148
3 80 109 108
3 81 148 149
3 80 110 109
3 81 149 150
3 80 111 110
3 81 150 151
3 80 112 111
3 81 151 152
3 80 113 112
3 81 152 153
3 80 114 113
3 81 153 154
3 80 115 114
3 81 154 155
3 80 116 115
3 81 155 156
3 80 117 116
3 81 156 157
3 80 118 117
3 81 157 158
3 80 119 118
3 81 158 159
3 80 120 119
3 81 159 160
3 80 121 120
3 81 160 161
3 80 82 121
3 81 161 122
3 162 163 165
3 162 165 164
3 164 165 167
3 164 167 166
3 166 167 169
3 166 169 168
3 168 169 171
3 168 171 170
3 170 171 173
3 170 173 172
3 172 173 175
3 172 175 174
3 174 175 177
3 174 177 176
3 176 177 179
3 176 179 178
3 178 179 181
3 178 181 180
3 180 181 183
3 180 183 182
3 182 183 185
3 182 185 184
3 184 185 187
3 184 187 186
3 186 187 189
3 186 189 188
3 188 189 191
3 188 191 190
3 190 191 193
3 190 193 192
3 192 193 195
3 192 195 194
3 194 195 197
3 194 197 196
3 196 197 199
3 196 199 198
3 198 199 201
3 198 201 200
3 200 201 203
3 200 203 202
3 202 203 205
3 202 205 204
3 204 205 207
3 204 207 206
3 206 207 209
3 206 209 208
3 208 209 211
3 208 211 210
3 210 211 213
3 210 213 212
3 212 213 215
3 212 215 214
3 214 215 217
3 214 217 216
3 216 217 219
3 216 219 218
3 218 219 221
3 218 221 220
3 220 221 223
3 220 223 222
3 222 223 225
3 222 225 224
3 224 225 227
3 224 227 226
3 226 227 229
3 226 229 228
3 228 229 231
3 228 231 230
3 230 231 233
3 230 233 232
3 232 233 235
3 232 235 234
3 234 235 237
3 234 237 236
3 236 237 239
3 236 239 238
3 238 239 241
3 238 241 240
3 240 241 163
3 240 163 162
3 242 245 244
3 243 284 285
3 242 246 245
3 243 285 286
3 242 247 246
3 243 286 287
3 242 248 247
3 243 287 288
3 242 249 248
3 243 288 289
3 242 250 249
3 243 289 290
3 242 251 250
3 243 290 291
3 242 252 251
3 243 291 292
3 242 253 252
3 243 292 293
3 242 254 253
3 243 293 294
3 242 255 254
3 243 294 295
3 242 256 255
3 243 295 296
3 242 257 256
3 243 296 297
3 242 258 257
3 243 297 298
3 242 259 258
3 243 298 299
3 242 260 259
3 243 299 300
3 242 261 260
3 243 300 301
3 242 262 261
3 243 301 302
3 242 263 262
3 243 302 303
3 242 264 263
3 243 303 304
3 242 265 264
3 243 304 305
3 242 266 265
3 243 305 306
3 242 267 266
3 243 306 307
3 242 268 267
3 243 307 308
3 242 269 268
3 243 308 309
3 242 270 269
3 243 309 310
3 242 271 270
3 243 310 311
3 242 272 271
3 243 311 312
3 242 273 272
3 243 312 313
3 242 274 273
3 243 313 314
3 242 275 274
3 243 314 315
3 242 276 275
3 243 315 316
3 242 277 276
3 243 316 317
3 242 278 277
3 243 317 318
3 242 279 278
3 243 318 319
3 242 280 279
3 243 319 320
3 242 281 280
3 243 320 321
3 242 282 281
3 243 321 322
3 242 283 282
3 243 322 323
3 242 244 283
3 243 323 284
3 324 325 327
3 324 327 326
3 326 327 329
3 326 329 328
3 328 329 331
3 328 331 330
3 330 331 333
3 330 333 332
3 332 333 335
3 332 335 334
3 334 335 337
3 334 337 336
3 336 337 339
3 336 339 338
3 338 339 341
3 338 341 340
3 340 341 343
3 340 343 342
3 342 343 345
3 342 345 344
3 344 345 347
3 344 347 346
3 346 347 349
3 346 349 348
3 348 349 351
3 348 351 350
3 350 351 353
3 350 353 352
3 352 353 355
3 352 355 354
3 354 355 357
3 354 357 356
3 356 357 359
3 356 359 358
3 358 359 361
3 358 361 360
3 360 361 363
3 360 363 362
3 362 363 365
3 362 365 364
3 364 365 367
3 364 367 366
3 366 367 369
3 366 369 368
3 368 369 371
3 368 371 370
3 370 371 373
3 370 373 372
3 372 373 375
3 372 375 374
3 374 375 377
3 374 377 376
3 376 377 379
3 376 379 378
3 378 379 381
3 378 381 380
3 380 381 383
3 380 383 382
3 382 383 385
3 382 385 384
3 384 385 387
3 384 387 386
3 386 387 389
3 386 389 388
3 388 389 391
3 388 391 390
3 390 391 393
3 390 393 392
3 392 393 395
3 392 395 394
3 394 395 397
3 394 397 396
3 396 397 399
3 396 399 398
3 398 399 401
3 398 401 400
3 400 401 403
3 400 403 402
3 402 403 325
3 402 325 324
3 404 407 406
3 405 446 447
3 404 408 407
3 405 447 448
3 404 409 408
3 405 448 449
3 404 410 409
3 405 449 450
3 404 411 410
3 405 450 451
3 404 412 411
3 405 451 452
3 404 413 412
3 405 452 453
3 404 414 413
3 405 453 454
3 404 415 414
3 405 454 455
3 404 416 415
3 405 455 456
3 404 417 416
3 405 456 457
3 404 418 417
3 405 457 458
3 404 419 418
3 405 458 459
3 404 420 419
3 405 459 460
3 404 421 420
3 405 460 461
3 404 422 421
3 405 461 462
3 404 423 422
3 405 462 463
3 404 424 423
3 405 463 464
3 404 425 424
3 405 464 465
3 404 426 425
3 405 465 466
3 404 427 426
3 405 466 467
3 404 428 427
3 405 467 468
3 404 429 428
3 405 468 469
3 404 430 429
3 405 469 470
3 404 431 430
3 405 470 471
3 404 432 431
3 405 471 472
3 404 433 432
3 405 472 473
3 404 434 433
3 405 473 474
3 404 435 434
3 405 474 475
3 404 436 435
3 405 475 476
3 404 437 436
3 405 476 477
3 404 438 437
3 405 477 478
3 404 439 438
3 405 478 479
3 404 440 439
3 405 479 480
3 404 441 440
3 405 480 481
3 404 442 441
3 405 481 482
3 404 443 442
3 405 482 483
3 404 444 443
3 405 483 484
3 404 445 444
3 405 484 485
3 404 406 445
3 405 485 446
