ply
format ascii 1.0
comment procedurally generated object
element vertex 760
property float x
property float y
property float z
property uchar red
property uchar green
property uchar blue
element face 1284
property list uchar int vertex_indices
end_header
0.50000 -1.00000 0.00000 235 235 238
0.50000 1.00000 0.00000 235 235 238
0.49384 -1.00000 0.07822 235 235 238
0.49384 1.00000 0.07822 235 235 238
0.47553 -1.00000 0.15451 235 235 238
0.47553 1.00000 0.15451 235 235 238
0.44550 -1.00000 0.22700 235 235 238
0.44550 1.00000 0.22700 235 235 238
0.40451 -1.00000 0.29389 235 235 238
0.40451 1.00000 0.29389 235 235 238
0.35355 -1.00000 0.35355 235 235 238
0.35355 1.00000 0.35355 235 235 238
0.29389 -1.00000 0.40451 235 235 238
0.29389 1.00000 0.40451 235 235 238
0.22700 -1.00000 0.44550 235 235 238
0.22700 1.00000 0.44550 235 235 238
0.15451 -1.00000 0.47553 235 235 238
0.15451 1.00000 0.47553 235 235 238
0.07822 -1.00000 0.49384 235 235 238
0.07822 1.00000 0.49384 235 235 238
0.00000 -1.00000 0.50000 235 235 238
0.00000 1.00000 0.50000 235 235 238
-0.07822 -1.00000 0.49384 235 235 238
-0.07822 1.00000 0.49384 235 235 238
-0.15451 -1.00000 0.47553 235 235 238
-0.15451 1.00000 0.47553 235 235 238
-0.22700 -1.00000 0.44550 235 235 238
-0.22700 1.00000 0.44550 235 235 238
-0.29389 -1.00000 0.40451 235 235 238
-0.29389 1.00000 0.40451 235 235 238
-0.35355 -1.00000 0.35355 235 235 238
-0.35355 1.00000 0.35355 235 235 238
-0.40451 -1.00000 0.29389 235 235 238
-0.40451 1.00000 0.29389 235 235 238
-0.44550 -1.00000 0.22700 235 235 238
-0.44550 1.00000 0.22700 235 235 238
-0.47553 -1.00000 0.15451 235 235 238
-0.47553 1.00000 0.15451 235 235 238
-0.49384 -1.00000 0.07822 235 235 238
-0.49384 1.00000 0.07822 235 235 238
-0.50000 -1.00000 0.00000 235 235 238
-0.50000 1.00000 0.00000 235 235 238
-0.49384 -1.00000 -0.07822 235 235 238
-0.49384 1.00000 -0.07822 235 235 238
-0.47553 -1.00000 -0.15451 235 235 238
-0.47553 1.00000 -0.15451 235 235 238
-0.44550 -1.00000 -0.22700 235 235 238
-0.44550 1.00000 -0.22700 235 235 238
-0.40451 -1.00000 -0.29389 235 235 238
-0.40451 1.00000 -0.29389 235 235 238
-0.35355 -1.00000 -0.35355 235 235 238
-0.35355 1.00000 -0.35355 235 235 238
-0.29389 -1.00000 -0.40451 235 235 238
-0.29389 1.00000 -0.40451 235 235 238
-0.22700 -1.00000 -0.44550 235 235 238
-0.22700 1.00000 -0.44550 235 235 238
-0.15451 -1.00000 -0.47553 235 235 238
-0.15451 1.00000 -0.47553 235 235 238
-0.07822 -1.00000 -0.49384 235 235 238
-0.07822 1.00000 -0.49384 235 235 238
-0.00000 -1.00000 -0.50000 235 235 238
-0.00000 1.00000 -0.50000 235 235 238
0.07822 -1.00000 -0.49384 235 235 238
0.07822 1.00000 -0.49384 235 235 238
0.15451 -1.00000 -0.47553 235 235 238
0.15451 1.00000 -0.47553 235 235 238
0.22700 -1.00000 -0.44550 235 235 238
0.22700 1.00000 -0.44550 235 235 238
0.29389 -1.00000 -0.40451 235 235 238
0.29389 1.00000 -0.40451 235 235 238
0.35355 -1.00000 -0.35355 235 235 238
0.35355 1.00000 -0.35355 235 235 238
0.40451 -1.00000 -0.29389 235 235 238
0.40451 1.00000 -0.29389 235 235 238
0.44550 -1.00000 -0.22700 235 235 238
0.44550 1.00000 -0.22700 235 235 238
0.47553 -1.00000 -0.15451 235 235 238
0.47553 1.00000 -0.15451 235 235 238
0.49384 -1.00000 -0.07822 235 235 238
0.49384 1.00000 -0.07822 235 235 238
0.00000 -1.00000 0.00000 235 235 238
0.00000 1.00000 0.00000 235 235 238
0.50000 -1.00000 0.00000 235 235 238
0.49384 -1.00000 0.07822 235 235 238
0.47553 -1.00000 0.15451 235 235 238
0.44550 -1.00000 0.22700 235 235 238
0.40451 -1.00000 0.29389 235 235 238
0.35355 -1.00000 0.35355 235 235 238
0.29389 -1.00000 0.40451 235 235 238
0.22700 -1.00000 0.44550 235 235 238
0.15451 -1.00000 0.47553 235 235 238
0.07822 -1.00000 0.49384 235 235 238
0.00000 -1.00000 0.50000 235 235 238
-0.07822 -1.00000 0.49384 235 235 238
-0.15451 -1.00000 0.47553 235 235 238
-0.22700 -1.00000 0.44550 235 235 238
-0.29389 -1.00000 0.40451 235 235 238
-0.35355 -1.00000 0.35355 235 235 238
-0.40451 -1.00000 0.29389 235 235 238
-0.44550 -1.00000 0.22700 235 235 238
-0.47553 -1.00000 0.15451 235 235 238
-0.49384 -1.00000 0.07822 235 235 238
-0.50000 -1.00000 0.00000 235 235 238
-0.49384 -1.00000 -0.07822 235 235 238
-0.47553 -1.00000 -0.15451 235 235 238
-0.44550 -1.00000 -0.22700 235 235 238
-0.40451 -1.00000 -0.29389 235 235 238
-0.35355 -1.00000 -0.35355 235 235 238
-0.29389 -1.00000 -0.40451 235 235 238
-0.22700 -1.00000 -0.44550 235 235 238
-0.15451 -1.00000 -0.47553 235 235 238
-0.07822 -1.00000 -0.49384 235 235 238
-0.00000 -1.00000 -0.50000 235 235 238
0.07822 -1.00000 -0.49384 235 235 238
0.15451 -1.00000 -0.47553 235 235 238
0.22700 -1.00000 -0.44550 235 235 238
0.29389 -1.00000 -0.40451 235 235 238
0.35355 -1.00000 -0.35355 235 235 238
0.40451 -1.00000 -0.29389 235 235 238
0.44550 -1.00000 -0.22700 235 235 238
0.47553 -1.00000 -0.15451 235 235 238
0.49384 -1.00000 -0.07822 235 235 238
0.50000 1.00000 0.00000 235 235 238
0.49384 1.00000 0.07822 235 235 238
0.47553 1.00000 0.15451 235 235 238
0.44550 1.00000 0.22700 235 235 238
0.40451 1.00000 0.29389 235 235 238
0.35355 1.00000 0.35355 235 235 238
0.29389 1.00000 0.40451 235 235 238
0.22700 1.00000 0.44550 235 235 238
0.15451 1.00000 0.47553 235 235 238
0.07822 1.00000 0.49384 235 235 238
0.00000 1.00000 0.50000 235 235 238
-0.07822 1.00000 0.49384 235 235 238
-0.15451 1.00000 0.47553 235 235 238
-0.22700 1.00000 0.44550 235 235 238
-0.29389 1.00000 0.40451 235 235 238
-0.35355 1.00000 0.35355 235 235 238
-0.40451 1.00000 0.29389 235 235 238
-0.44550 1.00000 0.22700 235 235 238
-0.47553 1.00000 0.15451 235 235 238
-0.49384 1.00000 0.07822 235 235 238
-0.50000 1.00000 0.00000 235 235 238
-0.49384 1.00000 -0.07822 235 235 238
-0.47553 1.00000 -0.15451 235 235 238
-0.44550 1.00000 -0.22700 235 235 238
-0.40451 1.00000 -0.29389 235 235 238
-0.35355 1.00000 -0.35355 235 235 238
-0.29389 1.00000 -0.40451 235 235 238
-0.22700 1.00000 -0.44550 235 235 238
-0.15451 1.00000 -0.47553 235 235 238
-0.07822 1.00000 -0.49384 235 235 238
-0.00000 1.00000 -0.50000 235 235 238
0.07822 1.00000 -0.49384 235 235 238
0.15451 1.00000 -0.47553 235 235 238
0.22700 1.00000 -0.44550 235 235 238
0.29389 1.00000 -0.40451 235 235 238
0.35355 1.00000 -0.35355 235 235 238
0.40451 1.00000 -0.29389 235 235 238
0.44550 1.00000 -0.22700 235 235 238
0.47553 1.00000 -0.15451 235 235 238
0.49384 1.00000 -0.07822 235 235 238
0.00000 1.95000 0.00000 200 40 40
0.00000 1.00000 0.00000 200 40 40
0.50000 1.00000 0.00000 200 40 40
0.49384 1.00000 0.07822 200 40 40
0.47553 1.00000 0.15451 200 40 40
0.44550 1.00000 0.22700 200 40 40
0.40451 1.00000 0.29389 200 40 40
0.35355 1.00000 0.35355 200 40 40
0.29389 1.00000 0.40451 200 40 40
0.22700 1.00000 0.44550 200 40 40
0.15451 1.00000 0.47553 200 40 40
0.07822 1.00000 0.49384 200 40 40
0.00000 1.00000 0.50000 200 40 40
-0.07822 1.00000 0.49384 200 40 40
-0.15451 1.00000 0.47553 200 40 40
-0.22700 1.00000 0.44550 200 40 40
-0.29389 1.00000 0.40451 200 40 40
-0.35355 1.00000 0.35355 200 40 40
-0.40451 1.00000 0.29389 200 40 40
-0.44550 1.00000 0.22700 200 40 40
-0.47553 1.00000 0.15451 200 40 40
-0.49384 1.00000 0.07822 200 40 40
-0.50000 1.00000 0.00000 200 40 40
-0.49384 1.00000 -0.07822 200 40 40
-0.47553 1.00000 -0.15451 200 40 40
-0.44550 1.00000 -0.22700 200 40 40
-0.40451 1.00000 -0.29389 200 40 40
-0.35355 1.00000 -0.35355 200 40 40
-0.29389 1.00000 -0.40451 200 40 40
-0.22700 1.00000 -0.44550 200 40 40
-0.15451 1.00000 -0.47553 200 40 40
-0.07822 1.00000 -0.49384 200 40 40
-0.00000 1.00000 -0.50000 200 40 40
0.07822 1.00000 -0.49384 200 40 40
0.15451 1.00000 -0.47553 200 40 40
0.22700 1.00000 -0.44550 200 40 40
0.29389 1.00000 -0.40451 200 40 40
0.35355 1.00000 -0.35355 200 40 40
0.40451 1.00000 -0.29389 200 40 40
0.44550 1.00000 -0.22700 200 40 40
0.47553 1.00000 -0.15451 200 40 40
0.49384 1.00000 -0.07822 200 40 40
0.00000 0.52000 0.50000 70 150 230
0.00000 0.52000 0.50000 70 150 230
0.00000 0.52000 0.50000 70 150 230
0.00000 0.52000 0.50000 70 150 230
0.00000 0.52000 0.50000 70 150 230
0.00000 0.52000 0.50000 70 150 230
0.00000 0.52000 0.50000 70 150 230
0.00000 0.52000 0.50000 70 150 230
0.00000 0.52000 0.50000 70 150 230
0.00000 0.52000 0.50000 70 150 230
0.00000 0.52000 0.50000 70 150 230
0.00000 0.52000 0.50000 70 150 230
0.00000 0.52000 0.50000 70 150 230
0.00000 0.52000 0.50000 70 150 230
0.00000 0.52000 0.50000 70 150 230
0.00000 0.52000 0.50000 70 150 230
0.00000 0.52000 0.50000 70 150 230
0.00000 0.52000 0.50000 70 150 230
0.00000 0.52000 0.50000 70 150 230
0.00000 0.52000 0.50000 70 150 230
0.00000 0.52000 0.50000 70 150 230
0.00000 0.52000 0.50000 70 150 230
0.00000 0.52000 0.50000 70 150 230
0.00000 0.52000 0.50000 70 150 230
0.00000 0.52000 0.50000 70 150 230
0.00000 0.52000 0.50000 70 150 230
0.00000 0.52000 0.50000 70 150 230
0.00000 0.52000 0.50000 70 150 230
0.02952 0.51742 0.50000 70 150 230
0.02878 0.51742 0.50657 70 150 230
0.02660 0.51742 0.51281 70 150 230
0.02308 0.51742 0.51841 70 150 230
0.01841 0.51742 0.52308 70 150 230
0.01281 0.51742 0.52660 70 150 230
0.00657 0.51742 0.52878 70 150 230
0.00000 0.51742 0.52952 70 150 230
-0.00657 0.51742 0.52878 70 150 230
-0.01281 0.51742 0.52660 70 150 230
-0.01841 0.51742 0.52308 70 150 230
-0.02308 0.51742 0.51841 70 150 230
-0.02660 0.51742 0.51281 70 150 230
-0.02878 0.51742 0.50657 70 150 230
-0.02952 0.51742 0.50000 70 150 230
-0.02878 0.51742 0.49343 70 150 230
-0.02660 0.51742 0.48719 70 150 230
-0.02308 0.51742 0.48159 70 150 230
-0.01841 0.51742 0.47692 70 150 230
-0.01281 0.51742 0.47340 70 150 230
-0.00657 0.51742 0.47122 70 150 230
-0.00000 0.51742 0.47048 70 150 230
0.00657 0.51742 0.47122 70 150 230
0.01281 0.51742 0.47340 70 150 230
0.01841 0.51742 0.47692 70 150 230
0.02308 0.51742 0.48159 70 150 230
0.02660 0.51742 0.48719 70 150 230
0.02878 0.51742 0.49343 70 150 230
0.05814 0.50975 0.50000 70 150 230
0.05669 0.50975 0.51294 70 150 230
0.05239 0.50975 0.52523 70 150 230
0.04546 0.50975 0.53625 70 150 230
0.03625 0.50975 0.54546 70 150 230
0.02523 0.50975 0.55239 70 150 230
0.01294 0.50975 0.55669 70 150 230
0.00000 0.50975 0.55814 70 150 230
-0.01294 0.50975 0.55669 70 150 230
-0.02523 0.50975 0.55239 70 150 230
-0.03625 0.50975 0.54546 70 150 230
-0.04546 0.50975 0.53625 70 150 230
-0.05239 0.50975 0.52523 70 150 230
-0.05669 0.50975 0.51294 70 150 230
-0.05814 0.50975 0.50000 70 150 230
-0.05669 0.50975 0.48706 70 150 230
-0.05239 0.50975 0.47477 70 150 230
-0.04546 0.50975 0.46375 70 150 230
-0.03625 0.50975 0.45454 70 150 230
-0.02523 0.50975 0.44761 70 150 230
-0.01294 0.50975 0.44331 70 150 230
-0.00000 0.50975 0.44186 70 150 230
0.01294 0.50975 0.44331 70 150 230
0.02523 0.50975 0.44761 70 150 230
0.03625 0.50975 0.45454 70 150 230
0.04546 0.50975 0.46375 70 150 230
0.05239 0.50975 0.47477 70 150 230
0.05669 0.50975 0.48706 70 150 230
0.08500 0.49722 0.50000 70 150 230
0.08287 0.49722 0.51891 70 150 230
0.07658 0.49722 0.53688 70 150 230
0.06646 0.49722 0.55300 70 150 230
0.05300 0.49722 0.56646 70 150 230
0.03688 0.49722 0.57658 70 150 230
0.01891 0.49722 0.58287 70 150 230
0.00000 0.49722 0.58500 70 150 230
-0.01891 0.49722 0.58287 70 150 230
-0.03688 0.49722 0.57658 70 150 230
-0.05300 0.49722 0.56646 70 150 230
-0.06646 0.49722 0.55300 70 150 230
-0.07658 0.49722 0.53688 70 150 230
-0.08287 0.49722 0.51891 70 150 230
-0.08500 0.49722 0.50000 70 150 230
-0.08287 0.49722 0.48109 70 150 230
-0.07658 0.49722 0.46312 70 150 230
-0.06646 0.49722 0.44700 70 150 230
-0.05300 0.49722 0.43354 70 150 230
-0.03688 0.49722 0.42342 70 150 230
-0.01891 0.49722 0.41713 70 150 230
-0.00000 0.49722 0.41500 70 150 230
0.01891 0.49722 0.41713 70 150 230
0.03688 0.49722 0.42342 70 150 230
0.05300 0.49722 0.43354 70 150 230
0.06646 0.49722 0.44700 70 150 230
0.07658 0.49722 0.46312 70 150 230
0.08287 0.49722 0.48109 70 150 230
0.10927 0.48023 0.50000 70 150 230
0.10653 0.48023 0.52432 70 150 230
0.09845 0.48023 0.54741 70 150 230
0.08543 0.48023 0.56813 70 150 230
0.06813 0.48023 0.58543 70 150 230
0.04741 0.48023 0.59845 70 150 230
0.02432 0.48023 0.60653 70 150 230
0.00000 0.48023 0.60927 70 150 230
-0.02432 0.48023 0.60653 70 150 230
-0.04741 0.48023 0.59845 70 150 230
-0.06813 0.48023 0.58543 70 150 230
-0.08543 0.48023 0.56813 70 150 230
-0.09845 0.48023 0.54741 70 150 230
-0.10653 0.48023 0.52432 70 150 230
-0.10927 0.48023 0.50000 70 150 230
-0.10653 0.48023 0.47568 70 150 230
-0.09845 0.48023 0.45259 70 150 230
-0.08543 0.48023 0.43187 70 150 230
-0.06813 0.48023 0.41457 70 150 230
-0.04741 0.48023 0.40155 70 150 230
-0.02432 0.48023 0.39347 70 150 230
-0.00000 0.48023 0.39073 70 150 230
0.02432 0.48023 0.39347 70 150 230
0.04741 0.48023 0.40155 70 150 230
0.06813 0.48023 0.41457 70 150 230
0.08543 0.48023 0.43187 70 150 230
0.09845 0.48023 0.45259 70 150 230
0.10653 0.48023 0.47568 70 150 230
0.13023 0.45927 0.50000 70 150 230
0.12696 0.45927 0.52898 70 150 230
0.11733 0.45927 0.55650 70 150 230
0.10182 0.45927 0.58120 70 150 230
0.08120 0.45927 0.60182 70 150 230
0.05650 0.45927 0.61733 70 150 230
0.02898 0.45927 0.62696 70 150 230
0.00000 0.45927 0.63023 70 150 230
-0.02898 0.45927 0.62696 70 150 230
-0.05650 0.45927 0.61733 70 150 230
-0.08120 0.45927 0.60182 70 150 230
-0.10182 0.45927 0.58120 70 150 230
-0.11733 0.45927 0.55650 70 150 230
-0.12696 0.45927 0.52898 70 150 230
-0.13023 0.45927 0.50000 70 150 230
-0.12696 0.45927 0.47102 70 150 230
-0.11733 0.45927 0.44350 70 150 230
-0.10182 0.45927 0.41880 70 150 230
-0.08120 0.45927 0.39818 70 150 230
-0.05650 0.45927 0.38267 70 150 230
-0.02898 0.45927 0.37304 70 150 230
-0.00000 0.45927 0.36977 70 150 230
0.02898 0.45927 0.37304 70 150 230
0.05650 0.45927 0.38267 70 150 230
0.08120 0.45927 0.39818 70 150 230
0.10182 0.45927 0.41880 70 150 230
0.11733 0.45927 0.44350 70 150 230
0.12696 0.45927 0.47102 70 150 230
0.14722 0.43500 0.50000 70 150 230
0.14353 0.43500 0.53276 70 150 230
0.13264 0.43500 0.56388 70 150 230
0.11510 0.43500 0.59179 70 150 230
0.09179 0.43500 0.61510 70 150 230
0.06388 0.43500 0.63264 70 150 230
0.03276 0.43500 0.64353 70 150 230
0.00000 0.43500 0.64722 70 150 230
-0.03276 0.43500 0.64353 70 150 230
-0.06388 0.43500 0.63264 70 150 230
-0.09179 0.43500 0.61510 70 150 230
-0.11510 0.43500 0.59179 70 150 230
-0.13264 0.43500 0.56388 70 150 230
-0.14353 0.43500 0.53276 70 150 230
-0.14722 0.43500 0.50000 70 150 230
-0.14353 0.43500 0.46724 70 150 230
-0.13264 0.43500 0.43612 70 150 230
-0.11510 0.43500 0.40821 70 150 230
-0.09179 0.43500 0.38490 70 150 230
-0.06388 0.43500 0.36736 70 150 230
-0.03276 0.43500 0.35647 70 150 230
-0.00000 0.43500 0.35278 70 150 230
0.03276 0.43500 0.35647 70 150 230
0.06388 0.43500 0.36736 70 150 230
0.09179 0.43500 0.38490 70 150 230
0.11510 0.43500 0.40821 70 150 230
0.13264 0.43500 0.43612 70 150 230
0.14353 0.43500 0.46724 70 150 230
0.15975 0.40814 0.50000 70 150 230
0.15574 0.40814 0.53555 70 150 230
0.14393 0.40814 0.56931 70 150 230
0.12490 0.40814 0.59960 70 150 230
0.09960 0.40814 0.62490 70 150 230
0.06931 0.40814 0.64393 70 150 230
0.03555 0.40814 0.65574 70 150 230
0.00000 0.40814 0.65975 70 150 230
-0.03555 0.40814 0.65574 70 150 230
-0.06931 0.40814 0.64393 70 150 230
-0.09960 0.40814 0.62490 70 150 230
-0.12490 0.40814 0.59960 70 150 230
-0.14393 0.40814 0.56931 70 150 230
-0.15574 0.40814 0.53555 70 150 230
-0.15975 0.40814 0.50000 70 150 230
-0.15574 0.40814 0.46445 70 150 230
-0.14393 0.40814 0.43069 70 150 230
-0.12490 0.40814 0.40040 70 150 230
-0.09960 0.40814 0.37510 70 150 230
-0.06931 0.40814 0.35607 70 150 230
-0.03555 0.40814 0.34426 70 150 230
-0.00000 0.40814 0.34025 70 150 230
0.03555 0.40814 0.34426 70 150 230
0.06931 0.40814 0.35607 70 150 230
0.09960 0.40814 0.37510 70 150 230
0.12490 0.40814 0.40040 70 150 230
0.14393 0.40814 0.43069 70 150 230
0.15574 0.40814 0.46445 70 150 230
0.16742 0.37952 0.50000 70 150 230
0.16322 0.37952 0.53725 70 150 230
0.15084 0.37952 0.57264 70 150 230
0.13089 0.37952 0.60438 70 150 230
0.10438 0.37952 0.63089 70 150 230
0.07264 0.37952 0.65084 70 150 230
0.03725 0.37952 0.66322 70 150 230
0.00000 0.37952 0.66742 70 150 230
-0.03725 0.37952 0.66322 70 150 230
-0.07264 0.37952 0.65084 70 150 230
-0.10438 0.37952 0.63089 70 150 230
-0.13089 0.37952 0.60438 70 150 230
-0.15084 0.37952 0.57264 70 150 230
-0.16322 0.37952 0.53725 70 150 230
-0.16742 0.37952 0.50000 70 150 230
-0.16322 0.37952 0.46275 70 150 230
-0.15084 0.37952 0.42736 70 150 230
-0.13089 0.37952 0.39562 70 150 230
-0.10438 0.37952 0.36911 70 150 230
-0.07264 0.37952 0.34916 70 150 230
-0.03725 0.37952 0.33678 70 150 230
-0.00000 0.37952 0.33258 70 150 230
0.03725 0.37952 0.33678 70 150 230
0.07264 0.37952 0.34916 70 150 230
0.10438 0.37952 0.36911 70 150 230
0.13089 0.37952 0.39562 70 150 230
0.15084 0.37952 0.42736 70 150 230
0.16322 0.37952 0.46275 70 150 230
0.17000 0.35000 0.50000 70 150 230
0.16574 0.35000 0.53783 70 150 230
0.15316 0.35000 0.57376 70 150 230
0.13291 0.35000 0.60599 70 150 230
0.10599 0.35000 0.63291 70 150 230
0.07376 0.35000 0.65316 70 150 230
0.03783 0.35000 0.66574 70 150 230
0.00000 0.35000 0.67000 70 150 230
-0.03783 0.35000 0.66574 70 150 230
-0.07376 0.35000 0.65316 70 150 230
-0.10599 0.35000 0.63291 70 150 230
-0.13291 0.35000 0.60599 70 150 230
-0.15316 0.35000 0.57376 70 150 230
-0.16574 0.35000 0.53783 70 150 230
-0.17000 0.35000 0.50000 70 150 230
-0.16574 0.35000 0.46217 70 150 230
-0.15316 0.35000 0.42624 70 150 230
-0.13291 0.35000 0.39401 70 150 230
-0.10599 0.35000 0.36709 70 150 230
-0.07376 0.35000 0.34684 70 150 230
-0.03783 0.35000 0.33426 70 150 230
-0.00000 0.35000 0.33000 70 150 230
0.03783 0.35000 0.33426 70 150 230
0.07376 0.35000 0.34684 70 150 230
0.10599 0.35000 0.36709 70 150 230
0.13291 0.35000 0.39401 70 150 230
0.15316 0.35000 0.42624 70 150 230
0.16574 0.35000 0.46217 70 150 230
0.16742 0.32048 0.50000 70 150 230
0.16322 0.32048 0.53725 70 150 230
0.15084 0.32048 0.57264 70 150 230
0.13089 0.32048 0.60438 70 150 230
0.10438 0.32048 0.63089 70 150 230
0.07264 0.32048 0.65084 70 150 230
0.03725 0.32048 0.66322 70 150 230
0.00000 0.32048 0.66742 70 150 230
-0.03725 0.32048 0.66322 70 150 230
-0.07264 0.32048 0.65084 70 150 230
-0.10438 0.32048 0.63089 70 150 230
-0.13089 0.32048 0.60438 70 150 230
-0.15084 0.32048 0.57264 70 150 230
-0.16322 0.32048 0.53725 70 150 230
-0.16742 0.32048 0.50000 70 150 230
-0.16322 0.32048 0.46275 70 150 230
-0.15084 0.32048 0.42736 70 150 230
-0.13089 0.32048 0.39562 70 150 230
-0.10438 0.32048 0.36911 70 150 230
-0.07264 0.32048 0.34916 70 150 230
-0.03725 0.32048 0.33678 70 150 230
-0.00000 0.32048 0.33258 70 150 230
0.03725 0.32048 0.33678 70 150 230
0.07264 0.32048 0.34916 70 150 230
0.10438 0.32048 0.36911 70 150 230
0.13089 0.32048 0.39562 70 150 230
0.15084 0.32048 0.42736 70 150 230
0.16322 0.32048 0.46275 70 150 230
0.15975 0.29186 0.50000 70 150 230
0.15574 0.29186 0.53555 70 150 230
0.14393 0.29186 0.56931 70 150 230
0.12490 0.29186 0.59960 70 150 230
0.09960 0.29186 0.62490 70 150 230
0.06931 0.29186 0.64393 70 150 230
0.03555 0.29186 0.65574 70 150 230
0.00000 0.29186 0.65975 70 150 230
-0.03555 0.29186 0.65574 70 150 230
-0.06931 0.29186 0.64393 70 150 230
-0.09960 0.29186 0.62490 70 150 230
-0.12490 0.29186 0.59960 70 150 230
-0.14393 0.29186 0.56931 70 150 230
-0.15574 0.29186 0.53555 70 150 230
-0.15975 0.29186 0.50000 70 150 230
-0.15574 0.29186 0.46445 70 150 230
-0.14393 0.29186 0.43069 70 150 230
-0.12490 0.29186 0.40040 70 150 230
-0.09960 0.29186 0.37510 70 150 230
-0.06931 0.29186 0.35607 70 150 230
-0.03555 0.29186 0.34426 70 150 230
-0.00000 0.29186 0.34025 70 150 230
0.03555 0.29186 0.34426 70 150 230
0.06931 0.29186 0.35607 70 150 230
0.09960 0.29186 0.37510 70 150 230
0.12490 0.29186 0.40040 70 150 230
0.14393 0.29186 0.43069 70 150 230
0.15574 0.29186 0.46445 70 150 230
0.14722 0.26500 0.50000 70 150 230
0.14353 0.26500 0.53276 70 150 230
0.13264 0.26500 0.56388 70 150 230
0.11510 0.26500 0.59179 70 150 230
0.09179 0.26500 0.61510 70 150 230
0.06388 0.26500 0.63264 70 150 230
0.03276 0.26500 0.64353 70 150 230
0.00000 0.26500 0.64722 70 150 230
-0.03276 0.26500 0.64353 70 150 230
-0.06388 0.26500 0.63264 70 150 230
-0.09179 0.26500 0.61510 70 150 230
-0.11510 0.26500 0.59179 70 150 230
-0.13264 0.26500 0.56388 70 150 230
-0.14353 0.26500 0.53276 70 150 230
-0.14722 0.26500 0.50000 70 150 230
-0.14353 0.26500 0.46724 70 150 230
-0.13264 0.26500 0.43612 70 150 230
-0.11510 0.26500 0.40821 70 150 230
-0.09179 0.26500 0.38490 70 150 230
-0.06388 0.26500 0.36736 70 150 230
-0.03276 0.26500 0.35647 70 150 230
-0.00000 0.26500 0.35278 70 150 230
0.03276 0.26500 0.35647 70 150 230
0.06388 0.26500 0.36736 70 150 230
0.09179 0.26500 0.38490 70 150 230
0.11510 0.26500 0.40821 70 150 230
0.13264 0.26500 0.43612 70 150 230
0.14353 0.26500 0.46724 70 150 230
0.13023 0.24073 0.50000 70 150 230
0.12696 0.24073 0.52898 70 150 230
0.11733 0.24073 0.55650 70 150 230
0.10182 0.24073 0.58120 70 150 230
0.08120 0.24073 0.60182 70 150 230
0.05650 0.24073 0.61733 70 150 230
0.02898 0.24073 0.62696 70 150 230
0.00000 0.24073 0.63023 70 150 230
-0.02898 0.24073 0.62696 70 150 230
-0.05650 0.24073 0.61733 70 150 230
-0.08120 0.24073 0.60182 70 150 230
-0.10182 0.24073 0.58120 70 150 230
-0.11733 0.24073 0.55650 70 150 230
-0.12696 0.24073 0.52898 70 150 230
-0.13023 0.24073 0.50000 70 150 230
-0.12696 0.24073 0.47102 70 150 230
-0.11733 0.24073 0.44350 70 150 230
-0.10182 0.24073 0.41880 70 150 230
-0.08120 0.24073 0.39818 70 150 230
-0.05650 0.24073 0.38267 70 150 230
-0.02898 0.24073 0.37304 70 150 230
-0.00000 0.24073 0.36977 70 150 230
0.02898 0.24073 0.37304 70 150 230
0.05650 0.24073 0.38267 70 150 230
0.08120 0.24073 0.39818 70 150 230
0.10182 0.24073 0.41880 70 150 230
0.11733 0.24073 0.44350 70 150 230
0.12696 0.24073 0.47102 70 150 230
0.10927 0.21977 0.50000 70 150 230
0.10653 0.21977 0.52432 70 150 230
0.09845 0.21977 0.54741 70 150 230
0.08543 0.21977 0.56813 70 150 230
0.06813 0.21977 0.58543 70 150 230
0.04741 0.21977 0.59845 70 150 230
0.02432 0.21977 0.60653 70 150 230
0.00000 0.21977 0.60927 70 150 230
-0.02432 0.21977 0.60653 70 150 230
-0.04741 0.21977 0.59845 70 150 230
-0.06813 0.21977 0.58543 70 150 230
-0.08543 0.21977 0.56813 70 150 230
-0.09845 0.21977 0.54741 70 150 230
-0.10653 0.21977 0.52432 70 150 230
-0.10927 0.21977 0.50000 70 150 230
-0.10653 0.21977 0.47568 70 150 230
-0.09845 0.21977 0.45259 70 150 230
-0.08543 0.21977 0.43187 70 150 230
-0.06813 0.21977 0.41457 70 150 230
-0.04741 0.21977 0.40155 70 150 230
-0.02432 0.21977 0.39347 70 150 230
-0.00000 0.21977 0.39073 70 150 230
0.02432 0.21977 0.39347 70 150 230
0.04741 0.21977 0.40155 70 150 230
0.06813 0.21977 0.41457 70 150 230
0.08543 0.21977 0.43187 70 150 230
0.09845 0.21977 0.45259 70 150 230
0.10653 0.21977 0.47568 70 150 230
0.08500 0.20278 0.50000 70 150 230
0.08287 0.20278 0.51891 70 150 230
0.07658 0.20278 0.53688 70 150 230
0.06646 0.20278 0.55300 70 150 230
0.05300 0.20278 0.56646 70 150 230
0.03688 0.20278 0.57658 70 150 230
0.01891 0.20278 0.58287 70 150 230
0.00000 0.20278 0.58500 70 150 230
-0.01891 0.20278 0.58287 70 150 230
-0.03688 0.20278 0.57658 70 150 230
-0.05300 0.20278 0.56646 70 150 230
-0.06646 0.20278 0.55300 70 150 230
-0.07658 0.20278 0.53688 70 150 230
-0.08287 0.20278 0.51891 70 150 230
-0.08500 0.20278 0.50000 70 150 230
-0.08287 0.20278 0.48109 70 150 230
-0.07658 0.20278 0.46312 70 150 230
-0.06646 0.20278 0.44700 70 150 230
-0.05300 0.20278 0.43354 70 150 230
-0.03688 0.20278 0.42342 70 150 230
-0.01891 0.20278 0.41713 70 150 230
-0.00000 0.20278 0.41500 70 150 230
0.01891 0.20278 0.41713 70 150 230
0.03688 0.20278 0.42342 70 150 230
0.05300 0.20278 0.43354 70 150 230
0.06646 0.20278 0.44700 70 150 230
0.07658 0.20278 0.46312 70 150 230
0.08287 0.20278 0.48109 70 150 230
0.05814 0.19025 0.50000 70 150 230
0.05669 0.19025 0.51294 70 150 230
0.05239 0.19025 0.52523 70 150 230
0.04546 0.19025 0.53625 70 150 230
0.03625 0.19025 0.54546 70 150 230
0.02523 0.19025 0.55239 70 150 230
0.01294 0.19025 0.55669 70 150 230
0.00000 0.19025 0.55814 70 150 230
-0.01294 0.19025 0.55669 70 150 230
-0.02523 0.19025 0.55239 70 150 230
-0.03625 0.19025 0.54546 70 150 230
-0.04546 0.19025 0.53625 70 150 230
-0.05239 0.19025 0.52523 70 150 230
-0.05669 0.19025 0.51294 70 150 230
-0.05814 0.19025 0.50000 70 150 230
-0.05669 0.19025 0.48706 70 150 230
-0.05239 0.19025 0.47477 70 150 230
-0.04546 0.19025 0.46375 70 150 230
-0.03625 0.19025 0.45454 70 150 230
-0.02523 0.19025 0.44761 70 150 230
-0.01294 0.19025 0.44331 70 150 230
-0.00000 0.19025 0.44186 70 150 230
0.01294 0.19025 0.44331 70 150 230
0.02523 0.19025 0.44761 70 150 230
0.03625 0.19025 0.45454 70 150 230
0.04546 0.19025 0.46375 70 150 230
0.05239 0.19025 0.47477 70 150 230
0.05669 0.19025 0.48706 70 150 230
0.02952 0.18258 0.50000 70 150 230
0.02878 0.18258 0.50657 70 150 230
0.02660 0.18258 0.51281 70 150 230
0.02308 0.18258 0.51841 70 150 230
0.01841 0.18258 0.52308 70 150 230
0.01281 0.18258 0.52660 70 150 230
0.00657 0.18258 0.52878 70 150 230
0.00000 0.18258 0.52952 70 150 230
-0.00657 0.18258 0.52878 70 150 230
-0.01281 0.18258 0.52660 70 150 230
-0.01841 0.18258 0.52308 70 150 230
-0.02308 0.18258 0.51841 70 150 230
-0.02660 0.18258 0.51281 70 150 230
-0.02878 0.18258 0.50657 70 150 230
-0.02952 0.18258 0.50000 70 150 230
-0.02878 0.18258 0.49343 70 150 230
-0.02660 0.18258 0.48719 70 150 230
-0.02308 0.18258 0.48159 70 150 230
-0.01841 0.18258 0.47692 70 150 230
-0.01281 0.18258 0.47340 70 150 230
-0.00657 0.18258 0.47122 70 150 230
-0.00000 0.18258 0.47048 70 150 230
0.00657 0.18258 0.47122 70 150 230
0.01281 0.18258 0.47340 70 150 230
0.01841 0.18258 0.47692 70 150 230
0.02308 0.18258 0.48159 70 150 230
0.02660 0.18258 0.48719 70 150 230
0.02878 0.18258 0.49343 70 150 230
0.00000 0.18000 0.50000 70 150 230
0.00000 0.18000 0.50000 70 150 230
0.00000 0.18000 0.50000 70 150 230
0.00000 0.18000 0.50000 70 150 230
0.00000 0.18000 0.50000 70 150 230
0.00000 0.18000 0.50000 70 150 230
0.00000 0.18000 0.50000 70 150 230
0.00000 0.18000 0.50000 70 150 230
-0.00000 0.18000 0.50000 70 150 230
-0.00000 0.18000 0.50000 70 150 230
-0.00000 0.18000 0.50000 70 150 230
-0.00000 0.18000 0.50000 70 150 230
-0.00000 0.18000 0.50000 70 150 230
-0.00000 0.18000 0.50000 70 150 230
-0.00000 0.18000 0.50000 70 150 230
-0.00000 0.18000 0.50000 70 150 230
-0.00000 0.18000 0.50000 70 150 230
-0.00000 0.18000 0.50000 70 150 230
-0.00000 0.18000 0.50000 70 150 230
-0.00000 0.18000 0.50000 70 150 230
-0.00000 0.18000 0.50000 70 150 230
-0.00000 0.18000 0.50000 70 150 230
0.00000 0.18000 0.50000 70 150 230
0.00000 0.18000 0.50000 70 150 230
0.00000 0.18000 0.50000 70 150 230
0.00000 0.18000 0.50000 70 150 230
0.00000 0.18000 0.50000 70 150 230
0.00000 0.18000 0.50000 70 150 230
0.57000 -1.10000 -0.27500 200 40 40
0.63000 -1.10000 -0.27500 200 40 40
0.63000 -0.40000 -0.27500 200 40 40
0.57000 -0.40000 -0.27500 200 40 40
0.57000 -1.10000 0.27500 200 40 40
0.63000 -1.10000 0.27500 200 40 40
0.63000 -0.40000 0.27500 200 40 40
0.57000 -0.40000 0.27500 200 40 40
-0.52316 -1.10000 -0.35613 200 40 40
-0.55316 -1.10000 -0.40810 200 40 40
-0.55316 -0.40000 -0.40810 200 40 40
-0.52316 -0.40000 -0.35613 200 40 40
-0.04684 -1.10000 -0.63113 200 40 40
-0.07684 -1.10000 -0.68310 200 40 40
-0.07684 -0.40000 -0.68310 200 40 40
-0.04684 -0.40000 -0.63113 200 40 40
-0.04684 -1.10000 0.63113 200 40 40
-0.07684 -1.10000 0.68310 200 40 40
-0.07684 -0.40000 0.68310 200 40 40
-0.04684 -0.40000 0.63113 200 40 40
-0.52316 -1.10000 0.35613 200 40 40
-0.55316 -1.10000 0.40810 200 40 40
-0.55316 -0.40000 0.40810 200 40 40
-0.52316 -0.40000 0.35613 200 40 40
3 0 1 3
3 0 3 2
3 2 3 5
3 2 5 4
3 4 5 7
3 4 7 6
3 6 7 9
3 6 9 8
3 8 9 11
3 8 11 10
3 10 11 13
3 10 13 12
3 12 13 15
3 12 15 14
3 14 15 17
3 14 17 16
3 16 17 19
3 16 19 18
3 18 19 21
3 18 21 20
3 20 21 23
3 20 23 22
3 22 23 25
3 22 25 24
3 24 25 27
3 24 27 26
3 26 27 29
3 26 29 28
3 28 29 31
3 28 31 30
3 30 31 33
3 30 33 32
3 32 33 35
3 32 35 34
3 34 35 37
3 34 37 36
3 36 37 39
3 36 39 38
3 38 39 41
3 38 41 40
3 40 41 43
3 40 43 42
3 42 43 45
3 42 45 44
3 44 45 47
3 44 47 46
3 46 47 49
3 46 49 48
3 48 49 51
3 48 51 50
3 50 51 53
3 50 53 52
3 52 53 55
3 52 55 54
3 54 55 57
3 54 57 56
3 56 57 59
3 56 59 58
3 58 59 61
3 58 61 60
3 60 61 63
3 60 63 62
3 62 63 65
3 62 65 64
3 64 65 67
3 64 67 66
3 66 67 69
3 66 69 68
3 68 69 71
3 68 71 70
3 70 71 73
3 70 73 72
3 72 73 75
3 72 75 74
3 74 75 77
3 74 77 76
3 76 77 79
3 76 79 78
3 78 79 1
3 78 1 0
3 80 83 82
3 81 122 123
3 80 84 83
3 81 123 124
3 80 85 84
3 81 124 125
3 80 86 85
3 81 125 126
3 80 87 86
3 81 126 127
3 80 88 87
3 81 127 128
3 80 89 88
3 81 128 129
3 80 90 89
3 81 129 130
3 80 91 90
3 81 130 131
3 80 92 91
3 81 131 132
3 80 93 92
3 81 132 133
3 80 94 93
3 81 133 134
3 80 95 94
3 81 134 135
3 80 96 95
3 81 135 136
3 80 97 96
3 81 136 137
3 80 98 97
3 81 137 138
3 80 99 98
3 81 138 139
3 80 100 99
3 81 139 140
3 80 101 100
3 81 140 141
3 80 102 101
3 81 141 142
3 80 103 102
3 81 142 143
3 80 104 103
3 81 143 144
3 80 105 104
3 81 144 145
3 80 106 105
3 81 145 146
3 80 107 106
3 81 146 147
3 80 108 107
3 81 147 148
3 80 109 108
3 81 148 149
3 80 110 109
3 81 149 150
3 80 111 110
3 81 150 151
3 80 112 111
3 81 151 152
3 80 113 112
3 81 152 153
3 80 114 113
3 81 153 154
3 80 115 114
3 81 154 155
3 80 116 115
3 81 155 156
3 80 117 116
3 81 156 157
3 80 118 117
3 81 157 158
3 80 119 118
3 81 158 159
3 80 120 119
3 81 159 160
3 80 121 120
3 81 160 161
3 80 82 121
3 81 161 122
3 162 164 165
3 163 165 164
3 162 165 166
3 163 166 165
3 162 166 167
3 163 167 166
3 162 167 168
3 163 168 167
3 162 168 169
3 163 169 168
3 162 169 170
3 163 170 169
3 162 170 171
3 163 171 170
3 162 171 172
3 163 172 171
3 162 172 173
3 163 173 172
3 162 173 174
3 163 174 173
3 162 174 175
3 163 175 174
3 162 175 176
3 163 176 175
3 162 176 177
3 163 177 176
3 162 177 178
3 163 178 177
3 162 178 179
3 163 179 178
3 162 179 180
3 163 180 179
3 162 180 181
3 163 181 180
3 162 181 182
3 163 182 181
3 162 182 183
3 163 183 182
3 162 183 184
3 163 184 183
3 162 184 185
3 163 185 184
3 162 185 186
3 163 186 185
3 162 186 187
3 163 187 186
3 162 187 188
3 163 188 187
3 162 188 189
3 163 189 188
3 162 189 190
3 163 190 189
3 162 190 191
3 163 191 190
3 162 191 192
3 163 192 191
3 162 192 193
3 163 193 192
3 162 193 194
3 163 194 193
3 162 194 195
3 163 195 194
3 162 195 196
3 163 196 195
3 162 196 197
3 163 197 196
3 162 197 198
3 163 198 197
3 162 198 199
3 163 199 198
3 162 199 200
3 163 200 199
3 162 200 201
3 163 201 200
3 162 201 202
3 163 202 201
3 162 202 203
3 163 203 202
3 162 203 164
3 163 164 203
3 204 205 233
3 204 233 232
3 205 206 234
3 205 234 233
3 206 207 235
3 206 235 234
3 207 208 236
3 207 236 235
3 208 209 237
3 208 237 236
3 209 210 238
3 209 238 237
3 210 211 239
3 210 239 238
3 211 212 240
3 211 240 239
3 212 213 241
3 212 241 240
3 213 214 242
3 213 242 241
3 214 215 243
3 214 243 242
3 215 216 244
3 215 244 243
3 216 217 245
3 216 245 244
3 217 218 246
3 217 246 245
3 218 219 247
3 218 247 246
3 219 220 248
3 219 248 247
3 220 221 249
3 220 249 248
3 221 222 250
3 221 250 249
3 222 223 251
3 222 251 250
3 223 224 252
3 223 252 251
3 224 225 253
3 224 253 252
3 225 226 254
3 225 254 253
3 226 227 255
3 226 255 254
3 227 228 256
3 227 256 255
3 228 229 257
3 228 257 256
3 229 230 258
3 229 258 257
3 230 231 259
3 230 259 258
3 231 204 232
3 231 232 259
3 232 233 261
3 232 261 260
3 233 234 262
3 233 262 261
3 234 235 263
3 234 263 262
3 235 236 264
3 235 264 263
3 236 237 265
3 236 265 264
3 237 238 266
3 237 266 265
3 238 239 267
3 238 267 266
3 239 240 268
3 239 268 267
3 240 241 269
3 240 269 268
3 241 242 270
3 241 270 269
3 242 243 271
3 242 271 270
3 243 244 272
3 243 272 271
3 244 245 273
3 244 273 272
3 245 246 274
3 245 274 273
3 246 247 275
3 246 275 274
3 247 248 276
3 247 276 275
3 248 249 277
3 248 277 276
3 249 250 278
3 249 278 277
3 250 251 279
3 250 279 278
3 251 252 280
3 251 280 279
3 252 253 281
3 252 281 280
3 253 254 282
3 253 282 281
3 254 255 283
3 254 283 282
3 255 256 284
3 255 284 283
3 256 257 285
3 256 285 284
3 257 258 286
3 257 286 285
3 258 259 287
3 258 287 286
3 259 232 260
3 259 260 287
3 260 261 289
3 260 289 288
3 261 262 290
3 261 290 289
3 262 263 291
3 262 291 290
3 263 264 292
3 263 292 291
3 264 265 293
3 264 293 292
3 265 266 294
3 265 294 293
3 266 267 295
3 266 295 294
3 267 268 296
3 267 296 295
3 268 269 297
3 268 297 296
3 269 270 298
3 269 298 297
3 270 271 299
3 270 299 298
3 271 272 300
3 271 300 299
3 272 273 301
3 272 301 300
3 273 274 302
3 273 302 301
3 274 275 303
3 274 303 302
3 275 276 304
3 275 304 303
3 276 277 305
3 276 305 304
3 277 278 306
3 277 306 305
3 278 279 307
3 278 307 306
3 279 280 308
3 279 308 307
3 280 281 309
3 280 309 308
3 281 282 310
3 281 310 309
3 282 283 311
3 282 311 310
3 283 284 312
3 283 312 311
3 284 285 313
3 284 313 312
3 285 286 314
3 285 314 313
3 286 287 315
3 286 315 314
3 287 260 288
3 287 288 315
3 288 289 317
3 288 317 316
3 289 290 318
3 289 318 317
3 290 291 319
3 290 319 318
3 291 292 320
3 291 320 319
3 292 293 321
3 292 321 320
3 293 294 322
3 293 322 321
3 294 295 323
3 294 323 322
3 295 296 324
3 295 324 323
3 296 297 325
3 296 325 324
3 297 298 326
3 297 326 325
3 298 299 327
3 298 327 326
3 299 300 328
3 299 328 327
3 300 301 329
3 300 329 328
3 301 302 330
3 301 330 329
3 302 303 331
3 302 331 330
3 303 304 332
3 303 332 331
3 304 305 333
3 304 333 332
3 305 306 334
3 305 334 333
3 306 307 335
3 306 335 334
3 307 308 336
3 307 336 335
3 308 309 337
3 308 337 336
3 309 310 338
3 309 338 337
3 310 311 339
3 310 339 338
3 311 312 340
3 311 340 339
3 312 313 341
3 312 341 340
3 313 314 342
3 313 342 341
3 314 315 343
3 314 343 342
3 315 288 316
3 315 316 343
3 316 317 345
3 316 345 344
3 317 318 346
3 317 346 345
3 318 319 347
3 318 347 346
3 319 320 348
3 319 348 347
3 320 321 349
3 320 349 348
3 321 322 350
3 321 350 349
3 322 323 351
3 322 351 350
3 323 324 352
3 323 352 351
3 324 325 353
3 324 353 352
3 325 326 354
3 325 354 353
3 326 327 355
3 326 355 354
3 327 328 356
3 327 356 355
3 328 329 357
3 328 357 356
3 329 330 358
3 329 358 357
3 330 331 359
3 330 359 358
3 331 332 360
3 331 360 359
3 332 333 361
3 332 361 360
3 333 334 362
3 333 362 361
3 334 335 363
3 334 363 362
3 335 336 364
3 335 364 363
3 336 337 365
3 336 365 364
3 337 338 366
3 337 366 365
3 338 339 367
3 338 367 366
3 339 340 368
3 339 368 367
3 340 341 369
3 340 369 368
3 341 342 370
3 341 370 369
3 342 343 371
3 342 371 370
3 343 316 344
3 343 344 371
3 344 345 373
3 344 373 372
3 345 346 374
3 345 374 373
3 346 347 375
3 346 375 374
3 347 348 376
3 347 376 375
3 348 349 377
3 348 377 376
3 349 350 378
3 349 378 377
3 350 351 379
3 350 379 378
3 351 352 380
3 351 380 379
3 352 353 381
3 352 381 380
3 353 354 382
3 353 382 381
3 354 355 383
3 354 383 382
3 355 356 384
3 355 384 383
3 356 357 385
3 356 385 384
3 357 358 386
3 357 386 385
3 358 359 387
3 358 387 386
3 359 360 388
3 359 388 387
3 360 361 389
3 360 389 388
3 361 362 390
3 361 390 389
3 362 363 391
3 362 391 390
3 363 364 392
3 363 392 391
3 364 365 393
3 364 393 392
3 365 366 394
3 365 394 393
3 366 367 395
3 366 395 394
3 367 368 396
3 367 396 395
3 368 369 397
3 368 397 396
3 369 370 398
3 369 398 397
3 370 371 399
3 370 399 398
3 371 344 372
3 371 372 399
3 372 373 401
3 372 401 400
3 373 374 402
3 373 402 401
3 374 375 403
3 374 403 402
3 375 376 404
3 375 404 403
3 376 377 405
3 376 405 404
3 377 378 406
3 377 406 405
3 378 379 407
3 378 407 406
3 379 380 408
3 379 408 407
3 380 381 409
3 380 409 408
3 381 382 410
3 381 410 409
3 382 383 411
3 382 411 410
3 383 384 412
3 383 412 411
3 384 385 413
3 384 413 412
3 385 386 414
3 385 414 413
3 386 387 415
3 386 415 414
3 387 388 416
3 387 416 415
3 388 389 417
3 388 417 416
3 389 390 418
3 389 418 417
3 390 391 419
3 390 419 418
3 391 392 420
3 391 420 419
3 392 393 421
3 392 421 420
3 393 394 422
3 393 422 421
3 394 395 423
3 394 423 422
3 395 396 424
3 395 424 423
3 396 397 425
3 396 425 424
3 397 398 426
3 397 426 425
3 398 399 427
3 398 427 426
3 399 372 400
3 399 400 427
3 400 401 429
3 400 429 428
3 401 402 430
3 401 430 429
3 402 403 431
3 402 431 430
3 403 404 432
3 403 432 431
3 404 405 433
3 404 433 432
3 405 406 434
3 405 434 433
3 406 407 435
3 406 435 434
3 407 408 436
3 407 436 435
3 408 409 437
3 408 437 436
3 409 410 438
3 409 438 437
3 410 411 439
3 410 439 438
3 411 412 440
3 411 440 439
3 412 413 441
3 412 441 440
3 413 414 442
3 413 442 441
3 414 415 443
3 414 443 442
3 415 416 444
3 415 444 443
3 416 417 445
3 416 445 444
3 417 418 446
3 417 446 445
3 418 419 447
3 418 447 446
3 419 420 448
3 419 448 447
3 420 421 449
3 420 449 448
3 421 422 450
3 421 450 449
3 422 423 451
3 422 451 450
3 423 424 452
3 423 452 451
3 424 425 453
3 424 453 452
3 425 426 454
3 425 454 453
3 426 427 455
3 426 455 454
3 427 400 428
3 427 428 455
3 428 429 457
3 428 457 456
3 429 430 458
3 429 458 457
3 430 431 459
3 430 459 458
3 431 432 460
3 431 460 459
3 432 433 461
3 432 461 460
3 433 434 462
3 433 462 461
3 434 435 463
3 434 463 462
3 435 436 464
3 435 464 463
3 436 437 465
3 436 465 464
3 437 438 466
3 437 466 465
3 438 439 467
3 438 467 466
3 439 440 468
3 439 468 467
3 440 441 469
3 440 469 468
3 441 442 470
3 441 470 469
3 442 443 471
3 442 471 470
3 443 444 472
3 443 472 471
3 444 445 473
3 444 473 472
3 445 446 474
3 445 474 473
3 446 447 475
3 446 475 474
3 447 448 476
3 447 476 475
3 448 449 477
3 448 477 476
3 449 450 478
3 449 478 477
3 450 451 479
3 450 479 478
3 451 452 480
3 451 480 479
3 452 453 481
3 452 481 480
3 453 454 482
3 453 482 481
3 454 455 483
3 454 483 482
3 455 428 456
3 455 456 483
3 456 457 485
3 456 485 484
3 457 458 486
3 457 486 485
3 458 459 487
3 458 487 486
3 459 460 488
3 459 488 487
3 460 461 489
3 460 489 488
3 461 462 490
3 461 490 489
3 462 463 491
3 462 491 490
3 463 464 492
3 463 492 491
3 464 465 493
3 464 493 492
3 465 466 494
3 465 494 493
3 466 467 495
3 466 495 494
3 467 468 496
3 467 496 495
3 468 469 497
3 468 497 496
3 469 470 498
3 469 498 497
3 470 471 499
3 470 499 498
3 471 472 500
3 471 500 499
3 472 473 501
3 472 501 500
3 473 474 502
3 473 502 501
3 474 475 503
3 474 503 502
3 475 476 504
3 475 504 503
3 476 477 505
3 476 505 504
3 477 478 506
3 477 506 505
3 478 479 507
3 478 507 506
3 479 480 508
3 479 508 507
3 480 481 509
3 480 509 508
3 481 482 510
3 481 510 509
3 482 483 511
3 482 511 510
3 483 456 484
3 483 484 511
3 484 485 513
3 484 513 512
3 485 486 514
3 485 514 513
3 486 487 515
3 486 515 514
3 487 488 516
3 487 516 515
3 488 489 517
3 488 517 516
3 489 490 518
3 489 518 517
3 490 491 519
3 490 519 518
3 491 492 520
3 491 520 519
3 492 493 521
3 492 521 520
3 493 494 522
3 493 522 521
3 494 495 523
3 494 523 522
3 495 496 524
3 495 524 523
3 496 497 525
3 496 525 524
3 497 498 526
3 497 526 525
3 498 499 527
3 498 527 526
3 499 500 528
3 499 528 527
3 500 501 529
3 500 529 528
3 501 502 530
3 501 530 529
3 502 503 531
3 502 531 530
3 503 504 532
3 503 532 531
3 504 505 533
3 504 533 532
3 505 506 534
3 505 534 533
3 506 507 535
3 506 535 534
3 507 508 536
3 507 536 535
3 508 509 537
3 508 537 536
3 509 510 538
3 509 538 537
3 510 511 539
3 510 539 538
3 511 484 512
3 511 512 539
3 512 513 541
3 512 541 540
3 513 514 542
3 513 542 541
3 514 515 543
3 514 543 542
3 515 516 544
3 515 544 543
3 516 517 545
3 516 545 544
3 517 518 546
3 517 546 545
3 518 519 547
3 518 547 546
3 519 520 548
3 519 548 547
3 520 521 549
3 520 549 548
3 521 522 550
3 521 550 549
3 522 523 551
3 522 551 550
3 523 524 552
3 523 552 551
3 524 525 553
3 524 553 552
3 525 526 554
3 525 554 553
3 526 527 555
3 526 555 554
3 527 528 556
3 527 556 555
3 528 529 557
3 528 557 556
3 529 530 558
3 529 558 557
3 530 531 559
3 530 559 558
3 531 532 560
3 531 560 559
3 532 533 561
3 532 561 560
3 533 534 562
3 533 562 561
3 534 535 563
3 534 563 562
3 535 536 564
3 535 564 563
3 536 537 565
3 536 565 564
3 537 538 566
3 537 566 565
3 538 539 567
3 538 567 566
3 539 512 540
3 539 540 567
3 540 541 569
3 540 569 568
3 541 542 570
3 541 570 569
3 542 543 571
3 542 571 570
3 543 544 572
3 543 572 571
3 544 545 573
3 544 573 572
3 545 546 574
3 545 574 573
3 546 547 575
3 546 575 574
3 547 548 576
3 547 576 575
3 548 549 577
3 548 577 576
3 549 550 578
3 549 578 577
3 550 551 579
3 550 579 578
3 551 552 580
3 551 580 579
3 552 553 581
3 552 581 580
3 553 554 582
3 553 582 581
3 554 555 583
3 554 583 582
3 555 556 584
3 555 584 583
3 556 557 585
3 556 585 584
3 557 558 586
3 557 586 585
3 558 559 587
3 558 587 586
3 559 560 588
3 559 588 587
3 560 561 589
3 560 589 588
3 561 562 590
3 561 590 589
3 562 563 591
3 562 591 590
3 563 564 592
3 563 592 591
3 564 565 593
3 564 593 592
3 565 566 594
3 565 594 593
3 566 567 595
3 566 595 594
3 567 540 568
3 567 568 595
3 568 569 597
3 568 597 596
3 569 570 598
3 569 598 597
3 570 571 599
3 570 599 598
3 571 572 600
3 571 600 599
3 572 573 601
3 572 601 600
3 573 574 602
3 573 602 601
3 574 575 603
3 574 603 602
3 575 576 604
3 575 604 603
3 576 577 605
3 576 605 604
3 577 578 606
3 577 606 605
3 578 579 607
3 578 607 606
3 579 580 608
3 579 608 607
3 580 581 609
3 580 609 608
3 581 582 610
3 581 610 609
3 582 583 611
3 582 611 610
3 583 584 612
3 583 612 611
3 584 585 613
3 584 613 612
3 585 586 614
3 585 614 613
3 586 587 615
3 586 615 614
3 587 588 616
3 587 616 615
3 588 589 617
3 588 617 616
3 589 590 618
3 589 618 617
3 590 591 619
3 590 619 618
3 591 592 620
3 591 620 619
3 592 593 621
3 592 621 620
3 593 594 622
3 593 622 621
3 594 595 623
3 594 623 622
3 595 568 596
3 595 596 623
3 596 597 625
3 596 625 624
3 597 598 626
3 597 626 625
3 598 599 627
3 598 627 626
3 599 600 628
3 599 628 627
3 600 601 629
3 600 629 628
3 601 602 630
3 601 630 629
3 602 603 631
3 602 631 630
3 603 604 632
3 603 632 631
3 604 605 633
3 604 633 632
3 605 606 634
3 605 634 633
3 606 607 635
3 606 635 634
3 607 608 636
3 607 636 635
3 608 609 637
3 608 637 636
3 609 610 638
3 609 638 637
3 610 611 639
3 610 639 638
3 611 612 640
3 611 640 639
3 612 613 641
3 612 641 640
3 613 614 642
3 613 642 641
3 614 615 643
3 614 643 642
3 615 616 644
3 615 644 643
3 616 617 645
3 616 645 644
3 617 618 646
3 617 646 645
3 618 619 647
3 618 647 646
3 619 620 648
3 619 648 647
3 620 621 649
3 620 649 648
3 621 622 650
3 621 650 649
3 622 623 651
3 622 651 650
3 623 596 624
3 623 624 651
3 624 625 653
3 624 653 652
3 625 626 654
3 625 654 653
3 626 627 655
3 626 655 654
3 627 628 656
3 627 656 655
3 628 629 657
3 628 657 656
3 629 630 658
3 629 658 657
3 630 631 659
3 630 659 658
3 631 632 660
3 631 660 659
3 632 633 661
3 632 661 660
3 633 634 662
3 633 662 661
3 634 635 663
3 634 663 662
3 635 636 664
3 635 664 663
3 636 637 665
3 636 665 664
3 637 638 666
3 637 666 665
3 638 639 667
3 638 667 666
3 639 640 668
3 639 668 667
3 640 641 669
3 640 669 668
3 641 642 670
3 641 670 669
3 642 643 671
3 642 671 670
3 643 644 672
3 643 672 671
3 644 645 673
3 644 673 672
3 645 646 674
3 645 674 673
3 646 647 675
3 646 675 674
3 647 648 676
3 647 676 675
3 648 649 677
3 648 677 676
3 649 650 678
3 649 678 677
3 650 651 679
3 650 679 678
3 651 624 652
3 651 652 679
3 652 653 681
3 652 681 680
3 653 654 682
3 653 682 681
3 654 655 683
3 654 683 682
3 655 656 684
3 655 684 683
3 656 657 685
3 656 685 684
3 657 658 686
3 657 686 685
3 658 659 687
3 658 687 686
3 659 660 688
3 659 688 687
3 660 661 689
3 660 689 688
3 661 662 690
3 661 690 689
3 662 663 691
3 662 691 690
3 663 664 692
3 663 692 691
3 664 665 693
3 664 693 692
3 665 666 694
3 665 694 693
3 666 667 695
3 666 695 694
3 667 668 696
3 667 696 695
3 668 669 697
3 668 697 696
3 669 670 698
3 669 698 697
3 670 671 699
3 670 699 698
3 671 672 700
3 671 700 699
3 672 673 701
3 672 701 700
3 673 674 702
3 673 702 701
3 674 675 703
3 674 703 702
3 675 676 704
3 675 704 703
3 676 677 705
3 676 705 704
3 677 678 706
3 677 706 705
3 678 679 707
3 678 707 706
3 679 652 680
3 679 680 707
3 680 681 709
3 680 709 708
3 681 682 710
3 681 710 709
3 682 683 711
3 682 711 710
3 683 684 712
3 683 712 711
3 684 685 713
3 684 713 712
3 685 686 714
3 685 714 713
3 686 687 715
3 686 715 714
3 687 688 716
3 687 716 715
3 688 689 717
3 688 717 716
3 689 690 718
3 689 718 717
3 690 691 719
3 690 719 718
3 691 692 720
3 691 720 719
3 692 693 721
3 692 721 720
3 693 694 722
3 693 722 721
3 694 695 723
3 694 723 722
3 695 696 724
3 695 724 723
3 696 697 725
3 696 725 724
3 697 698 726
3 697 726 725
3 698 699 727
3 698 727 726
3 699 700 728
3 699 728 727
3 700 701 729
3 700 729 728
3 701 702 730
3 701 730 729
3 702 703 731
3 702 731 730
3 703 704 732
3 703 732 731
3 704 705 733
3 704 733 732
3 705 706 734
3 705 734 733
3 706 707 735
3 706 735 734
3 707 680 708
3 707 708 735
3 736 737 738
3 736 738 739
3 741 740 743
3 741 743 742
3 740 736 739
3 740 739 743
3 737 741 742
3 737 742 738
3 740 741 737
3 740 737 736
3 739 738 742
3 739 742 743
3 744 745 746
3 744 746 747
3 749 748 751
3 749 751 750
3 748 744 747
3 748 747 751
3 745 749 750
3 745 750 746
3 748 749 745
3 748 745 744
3 747 746 750
3 747 750 751
3 752 753 754
3 752 754 755
3 757 756 759
3 757 759 758
3 756 752 755
3 756 755 759
3 753 757 758
3 753 758 754
3 756 757 753
3 756 753 752
3 755 754 758
3 755 758 759
