ply
format ascii 1.0
comment procedurally generated object
element vertex 440
property float x
property float y
property float z
property uchar red
property uchar green
property uchar blue
element face 792
property list uchar int vertex_indices
end_header
0.00000 0.00000 0.00000 205 215 230
0.00000 0.00000 0.00000 205 215 230
0.00000 0.00000 0.00000 205 215 230
0.00000 0.00000 0.00000 205 215 230
0.00000 0.00000 0.00000 205 215 230
0.00000 0.00000 0.00000 205 215 230
0.00000 0.00000 0.00000 205 215 230
0.00000 0.00000 0.00000 205 215 230
0.00000 0.00000 0.00000 205 215 230
0.00000 0.00000 0.00000 205 215 230
0.00000 0.00000 0.00000 205 215 230
0.00000 0.00000 0.00000 205 215 230
-0.00000 0.00000 0.00000 205 215 230
-0.00000 0.00000 0.00000 205 215 230
-0.00000 0.00000 0.00000 205 215 230
-0.00000 0.00000 0.00000 205 215 230
-0.00000 0.00000 0.00000 205 215 230
-0.00000 0.00000 0.00000 205 215 230
-0.00000 0.00000 0.00000 205 215 230
-0.00000 0.00000 0.00000 205 215 230
-0.00000 0.00000 0.00000 205 215 230
-0.00000 0.00000 0.00000 205 215 230
-0.00000 0.00000 0.00000 205 215 230
-0.00000 0.00000 -0.00000 205 215 230
-0.00000 0.00000 -0.00000 205 215 230
-0.00000 0.00000 -0.00000 205 215 230
-0.00000 0.00000 -0.00000 205 215 230
-0.00000 0.00000 -0.00000 205 215 230
-0.00000 0.00000 -0.00000 205 215 230
-0.00000 0.00000 -0.00000 205 215 230
-0.00000 0.00000 -0.00000 205 215 230
-0.00000 0.00000 -0.00000 205 215 230
-0.00000 0.00000 -0.00000 205 215 230
-0.00000 0.00000 -0.00000 205 215 230
0.00000 0.00000 -0.00000 205 215 230
0.00000 0.00000 -0.00000 205 215 230
0.00000 0.00000 -0.00000 205 215 230
0.00000 0.00000 -0.00000 205 215 230
0.00000 0.00000 -0.00000 205 215 230
0.00000 0.00000 -0.00000 205 215 230
0.00000 0.00000 -0.00000 205 215 230
0.00000 0.00000 -0.00000 205 215 230
0.00000 0.00000 -0.00000 205 215 230
0.00000 0.00000 -0.00000 205 215 230
0.60000 0.00000 0.00000 205 215 230
0.59389 0.00000 0.08539 205 215 230
0.57570 0.00000 0.16904 205 215 230
0.54578 0.00000 0.24925 205 215 230
0.50475 0.00000 0.32438 205 215 230
0.45345 0.00000 0.39292 205 215 230
0.39292 0.00000 0.45345 205 215 230
0.32438 0.00000 0.50475 205 215 230
0.24925 0.00000 0.54578 205 215 230
0.16904 0.00000 0.57570 205 215 230
0.08539 0.00000 0.59389 205 215 230
0.00000 0.00000 0.60000 205 215 230
-0.08539 0.00000 0.59389 205 215 230
-0.16904 0.00000 0.57570 205 215 230
-0.24925 0.00000 0.54578 205 215 230
-0.32438 0.00000 0.50475 205 215 230
-0.39292 0.00000 0.45345 205 215 230
-0.45345 0.00000 0.39292 205 215 230
-0.50475 0.00000 0.32438 205 215 230
-0.54578 0.00000 0.24925 205 215 230
-0.57570 0.00000 0.16904 205 215 230
-0.59389 0.00000 0.08539 205 215 230
-0.60000 0.00000 0.00000 205 215 230
-0.59389 0.00000 -0.08539 205 215 230
-0.57570 0.00000 -0.16904 205 215 230
-0.54578 0.00000 -0.24925 205 215 230
-0.50475 0.00000 -0.32438 205 215 230
-0.45345 0.00000 -0.39292 205 215 230
-0.39292 0.00000 -0.45345 205 215 230
-0.32438 0.00000 -0.50475 205 215 230
-0.24925 0.00000 -0.54578 205 215 230
-0.16904 0.00000 -0.57570 205 215 230
-0.08539 0.00000 -0.59389 205 215 230
-0.00000 0.00000 -0.60000 205 215 230
0.08539 0.00000 -0.59389 205 215 230
0.16904 0.00000 -0.57570 205 215 230
0.24925 0.00000 -0.54578 205 215 230
0.32438 0.00000 -0.50475 205 215 230
0.39292 0.00000 -0.45345 205 215 230
0.45345 0.00000 -0.39292 205 215 230
0.50475 0.00000 -0.32438 205 215 230
0.54578 0.00000 -0.24925 205 215 230
0.57570 0.00000 -0.16904 205 215 230
0.59389 0.00000 -0.08539 205 215 230
0.60000 0.07000 0.00000 205 215 230
0.59389 0.07000 0.08539 205 215 230
0.57570 0.07000 0.16904 205 215 230
0.54578 0.07000 0.24925 205 215 230
0.50475 0.07000 0.32438 205 215 230
0.45345 0.07000 0.39292 205 215 230
0.39292 0.07000 0.45345 205 215 230
0.32438 0.07000 0.50475 205 215 230
0.24925 0.07000 0.54578 205 215 230
0.16904 0.07000 0.57570 205 215 230
0.08539 0.07000 0.59389 205 215 230
0.00000 0.07000 0.60000 205 215 230
-0.08539 0.07000 0.59389 205 215 230
-0.16904 0.07000 0.57570 205 215 230
-0.24925 0.07000 0.54578 205 215 230
-0.32438 0.07000 0.50475 205 215 230
-0.39292 0.07000 0.45345 205 215 230
-0.45345 0.07000 0.39292 205 215 230
-0.50475 0.07000 0.32438 205 215 230
-0.54578 0.07000 0.24925 205 215 230
-0.57570 0.07000 0.16904 205 215 230
-0.59389 0.07000 0.08539 205 215 230
-0.60000 0.07000 0.00000 205 215 230
-0.59389 0.07000 -0.08539 205 215 230
-0.57570 0.07000 -0.16904 205 215 230
-0.54578 0.07000 -0.24925 205 215 230
-0.50475 0.07000 -0.32438 205 215 230
-0.45345 0.07000 -0.39292 205 215 230
-0.39292 0.07000 -0.45345 205 215 230
-0.32438 0.07000 -0.50475 205 215 230
-0.24925 0.07000 -0.54578 205 215 230
-0.16904 0.07000 -0.57570 205 215 230
-0.08539 0.07000 -0.59389 205 215 230
-0.00000 0.07000 -0.60000 205 215 230
0.08539 0.07000 -0.59389 205 215 230
0.16904 0.07000 -0.57570 205 215 230
0.24925 0.07000 -0.54578 205 215 230
0.32438 0.07000 -0.50475 205 215 230
0.39292 0.07000 -0.45345 205 215 230
0.45345 0.07000 -0.39292 205 215 230
0.50475 0.07000 -0.32438 205 215 230
0.54578 0.07000 -0.24925 205 215 230
0.57570 0.07000 -0.16904 205 215 230
0.59389 0.07000 -0.08539 205 215 230
0.10000 0.14000 0.00000 205 215 230
0.09898 0.14000 0.01423 205 215 230
0.09595 0.14000 0.02817 205 215 230
0.09096 0.14000 0.04154 205 215 230
0.08413 0.14000 0.05406 205 215 230
0.07557 0.14000 0.06549 205 215 230
0.06549 0.14000 0.07557 205 215 230
0.05406 0.14000 0.08413 205 215 230
0.04154 0.14000 0.09096 205 215 230
0.02817 0.14000 0.09595 205 215 230
0.01423 0.14000 0.09898 205 215 230
0.00000 0.14000 0.10000 205 215 230
-0.01423 0.14000 0.09898 205 215 230
-0.02817 0.14000 0.09595 205 215 230
-0.04154 0.14000 0.09096 205 215 230
-0.05406 0.14000 0.08413 205 215 230
-0.06549 0.14000 0.07557 205 215 230
-0.07557 0.14000 0.06549 205 215 230
-0.08413 0.14000 0.05406 205 215 230
-0.09096 0.14000 0.04154 205 215 230
-0.09595 0.14000 0.02817 205 215 230
-0.09898 0.14000 0.01423 205 215 230
-0.10000 0.14000 0.00000 205 215 230
-0.09898 0.14000 -0.01423 205 215 230
-0.09595 0.14000 -0.02817 205 215 230
-0.09096 0.14000 -0.04154 205 215 230
-0.08413 0.14000 -0.05406 205 215 230
-0.07557 0.14000 -0.06549 205 215 230
-0.06549 0.14000 -0.07557 205 215 230
-0.05406 0.14000 -0.08413 205 215 230
-0.04154 0.14000 -0.09096 205 215 230
-0.02817 0.14000 -0.09595 205 215 230
-0.01423 0.14000 -0.09898 205 215 230
-0.00000 0.14000 -0.10000 205 215 230
0.01423 0.14000 -0.09898 205 215 230
0.02817 0.14000 -0.09595 205 215 230
0.04154 0.14000 -0.09096 205 215 230
0.05406 0.14000 -0.08413 205 215 230
0.06549 0.14000 -0.07557 205 215 230
0.07557 0.14000 -0.06549 205 215 230
0.08413 0.14000 -0.05406 205 215 230
0.09096 0.14000 -0.04154 205 215 230
0.09595 0.14000 -0.02817 205 215 230
0.09898 0.14000 -0.01423 205 215 230
0.05000 1.00000 0.00000 205 215 230
0.04949 1.00000 0.00712 205 215 230
0.04797 1.00000 0.01409 205 215 230
0.04548 1.00000 0.02077 205 215 230
0.04206 1.00000 0.02703 205 215 230
0.03779 1.00000 0.03274 205 215 230
0.03274 1.00000 0.03779 205 215 230
0.02703 1.00000 0.04206 205 215 230
0.02077 1.00000 0.04548 205 215 230
0.01409 1.00000 0.04797 205 215 230
0.00712 1.00000 0.04949 205 215 230
0.00000 1.00000 0.05000 205 215 230
-0.00712 1.00000 0.04949 205 215 230
-0.01409 1.00000 0.04797 205 215 230
-0.02077 1.00000 0.04548 205 215 230
-0.02703 1.00000 0.04206 205 215 230
-0.03274 1.00000 0.03779 205 215 230
-0.03779 1.00000 0.03274 205 215 230
-0.04206 1.00000 0.02703 205 215 230
-0.04548 1.00000 0.02077 205 215 230
-0.04797 1.00000 0.01409 205 215 230
-0.04949 1.00000 0.00712 205 215 230
-0.05000 1.00000 0.00000 205 215 230
-0.04949 1.00000 -0.00712 205 215 230
-0.04797 1.00000 -0.01409 205 215 230
-0.04548 1.00000 -0.02077 205 215 230
-0.04206 1.00000 -0.02703 205 215 230
-0.03779 1.00000 -0.03274 205 215 230
-0.03274 1.00000 -0.03779 205 215 230
-0.02703 1.00000 -0.04206 205 215 230
-0.02077 1.00000 -0.04548 205 215 230
-0.01409 1.00000 -0.04797 205 215 230
-0.00712 1.00000 -0.04949 205 215 230
-0.00000 1.00000 -0.05000 205 215 230
0.00712 1.00000 -0.04949 205 215 230
0.01409 1.00000 -0.04797 205 215 230
0.02077 1.00000 -0.04548 205 215 230
0.02703 1.00000 -0.04206 205 215 230
0.03274 1.00000 -0.03779 205 215 230
0.03779 1.00000 -0.03274 205 215 230
0.04206 1.00000 -0.02703 205 215 230
0.04548 1.00000 -0.02077 205 215 230
0.04797 1.00000 -0.01409 205 215 230
0.04949 1.00000 -0.00712 205 215 230
0.10000 1.12000 0.00000 205 215 230
0.09898 1.12000 0.01423 205 215 230
0.09595 1.12000 0.02817 205 215 230
0.09096 1.12000 0.04154 205 215 230
0.08413 1.12000 0.05406 205 215 230
0.07557 1.12000 0.06549 205 215 230
0.06549 1.12000 0.07557 205 215 230
0.05406 1.12000 0.08413 205 215 230
0.04154 1.12000 0.09096 205 215 230
0.02817 1.12000 0.09595 205 215 230
0.01423 1.12000 0.09898 205 215 230
0.00000 1.12000 0.10000 205 215 230
-0.01423 1.12000 0.09898 205 215 230
-0.02817 1.12000 0.09595 205 215 230
-0.04154 1.12000 0.09096 205 215 230
-0.05406 1.12000 0.08413 205 215 230
-0.06549 1.12000 0.07557 205 215 230
-0.07557 1.12000 0.06549 205 215 230
-0.08413 1.12000 0.05406 205 215 230
-0.09096 1.12000 0.04154 205 215 230
-0.09595 1.12000 0.02817 205 215 230
-0.09898 1.12000 0.01423 205 215 230
-0.10000 1.12000 0.00000 205 215 230
-0.09898 1.12000 -0.01423 205 215 230
-0.09595 1.12000 -0.02817 205 215 230
-0.09096 1.12000 -0.04154 205 215 230
-0.08413 1.12000 -0.05406 205 215 230
-0.07557 1.12000 -0.06549 205 215 230
-0.06549 1.12000 -0.07557 205 215 230
-0.05406 1.12000 -0.08413 205 215 230
-0.04154 1.12000 -0.09096 205 215 230
-0.02817 1.12000 -0.09595 205 215 230
-0.01423 1.12000 -0.09898 205 215 230
-0.00000 1.12000 -0.10000 205 215 230
0.01423 1.12000 -0.09898 205 215 230
0.02817 1.12000 -0.09595 205 215 230
0.04154 1.12000 -0.09096 205 215 230
0.05406 1.12000 -0.08413 205 215 230
0.06549 1.12000 -0.07557 205 215 230
0.07557 1.12000 -0.06549 205 215 230
0.08413 1.12000 -0.05406 205 215 230
0.09096 1.12000 -0.04154 205 215 230
0.09595 1.12000 -0.02817 205 215 230
0.09898 1.12000 -0.01423 205 215 230
0.50000 1.55000 0.00000 205 215 230
0.49491 1.55000 0.07116 205 215 230
0.47975 1.55000 0.14087 205 215 230
0.45482 1.55000 0.20771 205 215 230
0.42063 1.55000 0.27032 205 215 230
0.37787 1.55000 0.32743 205 215 230
0.32743 1.55000 0.37787 205 215 230
0.27032 1.55000 0.42063 205 215 230
0.20771 1.55000 0.45482 205 215 230
0.14087 1.55000 0.47975 205 215 230
0.07116 1.55000 0.49491 205 215 230
0.00000 1.55000 0.50000 205 215 230
-0.07116 1.55000 0.49491 205 215 230
-0.14087 1.55000 0.47975 205 215 230
-0.20771 1.55000 0.45482 205 215 230
-0.27032 1.55000 0.42063 205 215 230
-0.32743 1.55000 0.37787 205 215 230
-0.37787 1.55000 0.32743 205 215 230
-0.42063 1.55000 0.27032 205 215 230
-0.45482 1.55000 0.20771 205 215 230
-0.47975 1.55000 0.14087 205 215 230
-0.49491 1.55000 0.07116 205 215 230
-0.50000 1.55000 0.00000 205 215 230
-0.49491 1.55000 -0.07116 205 215 230
-0.47975 1.55000 -0.14087 205 215 230
-0.45482 1.55000 -0.20771 205 215 230
-0.42063 1.55000 -0.27032 205 215 230
-0.37787 1.55000 -0.32743 205 215 230
-0.32743 1.55000 -0.37787 205 215 230
-0.27032 1.55000 -0.42063 205 215 230
-0.20771 1.55000 -0.45482 205 215 230
-0.14087 1.55000 -0.47975 205 215 230
-0.07116 1.55000 -0.49491 205 215 230
-0.00000 1.55000 -0.50000 205 215 230
0.07116 1.55000 -0.49491 205 215 230
0.14087 1.55000 -0.47975 205 215 230
0.20771 1.55000 -0.45482 205 215 230
0.27032 1.55000 -0.42063 205 215 230
0.32743 1.55000 -0.37787 205 215 230
0.37787 1.55000 -0.32743 205 215 230
0.42063 1.55000 -0.27032 205 215 230
0.45482 1.55000 -0.20771 205 215 230
0.47975 1.55000 -0.14087 205 215 230
0.49491 1.55000 -0.07116 205 215 230
0.56000 2.10000 0.00000 205 215 230
0.55430 2.10000 0.07970 205 215 230
0.53732 2.10000 0.15777 205 215 230
0.50939 2.10000 0.23263 205 215 230
0.47110 2.10000 0.30276 205 215 230
0.42322 2.10000 0.36672 205 215 230
0.36672 2.10000 0.42322 205 215 230
0.30276 2.10000 0.47110 205 215 230
0.23263 2.10000 0.50939 205 215 230
0.15777 2.10000 0.53732 205 215 230
0.07970 2.10000 0.55430 205 215 230
0.00000 2.10000 0.56000 205 215 230
-0.07970 2.10000 0.55430 205 215 230
-0.15777 2.10000 0.53732 205 215 230
-0.23263 2.10000 0.50939 205 215 230
-0.30276 2.10000 0.47110 205 215 230
-0.36672 2.10000 0.42322 205 215 230
-0.42322 2.10000 0.36672 205 215 230
-0.47110 2.10000 0.30276 205 215 230
-0.50939 2.10000 0.23263 205 215 230
-0.53732 2.10000 0.15777 205 215 230
-0.55430 2.10000 0.07970 205 215 230
-0.56000 2.10000 0.00000 205 215 230
-0.55430 2.10000 -0.07970 205 215 230
-0.53732 2.10000 -0.15777 205 215 230
-0.50939 2.10000 -0.23263 205 215 230
-0.47110 2.10000 -0.30276 205 215 230
-0.42322 2.10000 -0.36672 205 215 230
-0.36672 2.10000 -0.42322 205 215 230
-0.30276 2.10000 -0.47110 205 215 230
-0.23263 2.10000 -0.50939 205 215 230
-0.15777 2.10000 -0.53732 205 215 230
-0.07970 2.10000 -0.55430 205 215 230
-0.00000 2.10000 -0.56000 205 215 230
0.07970 2.10000 -0.55430 205 215 230
0.15777 2.10000 -0.53732 205 215 230
0.23263 2.10000 -0.50939 205 215 230
0.30276 2.10000 -0.47110 205 215 230
0.36672 2.10000 -0.42322 205 215 230
0.42322 2.10000 -0.36672 205 215 230
0.47110 2.10000 -0.30276 205 215 230
0.50939 2.10000 -0.23263 205 215 230
0.53732 2.10000 -0.15777 205 215 230
0.55430 2.10000 -0.07970 205 215 230
0.54000 2.20000 0.00000 205 215 230
0.53450 2.20000 0.07685 205 215 230
0.51813 2.20000 0.15214 205 215 230
0.49120 2.20000 0.22432 205 215 230
0.45428 2.20000 0.29195 205 215 230
0.40810 2.20000 0.35362 205 215 230
0.35362 2.20000 0.40810 205 215 230
0.29195 2.20000 0.45428 205 215 230
0.22432 2.20000 0.49120 205 215 230
0.15214 2.20000 0.51813 205 215 230
0.07685 2.20000 0.53450 205 215 230
0.00000 2.20000 0.54000 205 215 230
-0.07685 2.20000 0.53450 205 215 230
-0.15214 2.20000 0.51813 205 215 230
-0.22432 2.20000 0.49120 205 215 230
-0.29195 2.20000 0.45428 205 215 230
-0.35362 2.20000 0.40810 205 215 230
-0.40810 2.20000 0.35362 205 215 230
-0.45428 2.20000 0.29195 205 215 230
-0.49120 2.20000 0.22432 205 215 230
-0.51813 2.20000 0.15214 205 215 230
-0.53450 2.20000 0.07685 205 215 230
-0.54000 2.20000 0.00000 205 215 230
-0.53450 2.20000 -0.07685 205 215 230
-0.51813 2.20000 -0.15214 205 215 230
-0.49120 2.20000 -0.22432 205 215 230
-0.45428 2.20000 -0.29195 205 215 230
-0.40810 2.20000 -0.35362 205 215 230
-0.35362 2.20000 -0.40810 205 215 230
-0.29195 2.20000 -0.45428 205 215 230
-0.22432 2.20000 -0.49120 205 215 230
-0.15214 2.20000 -0.51813 205 215 230
-0.07685 2.20000 -0.53450 205 215 230
-0.00000 2.20000 -0.54000 205 215 230
0.07685 2.20000 -0.53450 205 215 230
0.15214 2.20000 -0.51813 205 215 230
0.22432 2.20000 -0.49120 205 215 230
0.29195 2.20000 -0.45428 205 215 230
0.35362 2.20000 -0.40810 205 215 230
0.40810 2.20000 -0.35362 205 215 230
0.45428 2.20000 -0.29195 205 215 230
0.49120 2.20000 -0.22432 205 215 230
0.51813 2.20000 -0.15214 205 215 230
0.53450 2.20000 -0.07685 205 215 230
0.00000 2.20000 0.00000 205 215 230
0.00000 2.20000 0.00000 205 215 230
0.00000 2.20000 0.00000 205 215 230
0.00000 2.20000 0.00000 205 215 230
0.00000 2.20000 0.00000 205 215 230
0.00000 2.20000 0.00000 205 215 230
0.00000 2.20000 0.00000 205 215 230
0.00000 2.20000 0.00000 205 215 230
0.00000 2.20000 0.00000 205 215 230
0.00000 2.20000 0.00000 205 215 230
0.00000 2.20000 0.00000 205 215 230
0.00000 2.20000 0.00000 205 215 230
-0.00000 2.20000 0.00000 205 215 230
-0.00000 2.20000 0.00000 205 215 230
-0.00000 2.20000 0.00000 205 215 230
-0.00000 2.20000 0.00000 205 215 230
-0.00000 2.20000 0.00000 205 215 230
-0.00000 2.20000 0.00000 205 215 230
-0.00000 2.20000 0.00000 205 215 230
-0.00000 2.20000 0.00000 205 215 230
-0.00000 2.20000 0.00000 205 215 230
-0.00000 2.20000 0.00000 205 215 230
-0.00000 2.20000 0.00000 205 215 230
-0.00000 2.20000 -0.00000 205 215 230
-0.00000 2.20000 -0.00000 205 215 230
-0.00000 2.20000 -0.00000 205 215 230
-0.00000 2.20000 -0.00000 205 215 230
-0.00000 2.20000 -0.00000 205 215 230
-0.00000 2.20000 -0.00000 205 215 230
-0.00000 2.20000 -0.00000 205 215 230
-0.00000 2.20000 -0.00000 205 215 230
-0.00000 2.20000 -0.00000 205 215 230
-0.00000 2.20000 -0.00000 205 215 230
-0.00000 2.20000 -0.00000 205 215 230
0.00000 2.20000 -0.00000 205 215 230
0.00000 2.20000 -0.00000 205 215 230
0.00000 2.20000 -0.00000 205 215 230
0.00000 2.20000 -0.00000 205 215 230
0.00000 2.20000 -0.00000 205 215 230
0.00000 2.20000 -0.00000 205 215 230
0.00000 2.20000 -0.00000 205 215 230
0.00000 2.20000 -0.00000 205 215 230
0.00000 2.20000 -0.00000 205 215 230
0.00000 2.20000 -0.00000 205 215 230
3 0 1 45
3 0 45 44
3 1 2 46
3 1 46 45
3 2 3 47
3 2 47 46
3 3 4 48
3 3 48 47
3 4 5 49
3 4 49 48
3 5 6 50
3 5 50 49
3 6 7 51
3 6 51 50
3 7 8 52
3 7 52 51
3 8 9 53
3 8 53 52
3 9 10 54
3 9 54 53
3 10 11 55
3 10 55 54
3 11 12 56
3 11 56 55
3 12 13 57
3 12 57 56
3 13 14 58
3 13 58 57
3 14 15 59
3 14 59 58
3 15 16 60
3 15 60 59
3 16 17 61
3 16 61 60
3 17 18 62
3 17 62 61
3 18 19 63
3 18 63 62
3 19 20 64
3 19 64 63
3 20 21 65
3 20 65 64
3 21 22 66
3 21 66 65
3 22 23 67
3 22 67 66
3 23 24 68
3 23 68 67
3 24 25 69
3 24 69 68
3 25 26 70
3 25 70 69
3 26 27 71
3 26 71 70
3 27 28 72
3 27 72 71
3 28 29 73
3 28 73 72
3 29 30 74
3 29 74 73
3 30 31 75
3 30 75 74
3 31 32 76
3 31 76 75
3 32 33 77
3 32 77 76
3 33 34 78
3 33 78 77
3 34 35 79
3 34 79 78
3 35 36 80
3 35 80 79
3 36 37 81
3 36 81 80
3 37 38 82
3 37 82 81
3 38 39 83
3 38 83 82
3 39 40 84
3 39 84 83
3 40 41 85
3 40 85 84
3 41 42 86
3 41 86 85
3 42 43 87
3 42 87 86
3 43 0 44
3 43 44 87
3 44 45 89
3 44 89 88
3 45 46 90
3 45 90 89
3 46 47 91
3 46 91 90
3 47 48 92
3 47 92 91
3 48 49 93
3 48 93 92
3 49 50 94
3 49 94 93
3 50 51 95
3 50 95 94
3 51 52 96
3 51 96 95
3 52 53 97
3 52 97 96
3 53 54 98
3 53 98 97
3 54 55 99
3 54 99 98
3 55 56 100
3 55 100 99
3 56 57 101
3 56 101 100
3 57 58 102
3 57 102 101
3 58 59 103
3 58 103 102
3 59 60 104
3 59 104 103
3 60 61 105
3 60 105 104
3 61 62 106
3 61 106 105
3 62 63 107
3 62 107 106
3 63 64 108
3 63 108 107
3 64 65 109
3 64 109 108
3 65 66 110
3 65 110 109
3 66 67 111
3 66 111 110
3 67 68 112
3 67 112 111
3 68 69 113
3 68 113 112
3 69 70 114
3 69 114 113
3 70 71 115
3 70 115 114
3 71 72 116
3 71 116 115
3 72 73 117
3 72 117 116
3 73 74 118
3 73 118 117
3 74 75 119
3 74 119 118
3 75 76 120
3 75 120 119
3 76 77 121
3 76 121 120
3 77 78 122
3 77 122 121
3 78 79 123
3 78 123 122
3 79 80 124
3 79 124 123
3 80 81 125
3 80 125 124
3 81 82 126
3 81 126 125
3 82 83 127
3 82 127 126
3 83 84 128
3 83 128 127
3 84 85 129
3 84 129 128
3 85 86 130
3 85 130 129
3 86 87 131
3 86 131 130
3 87 44 88
3 87 88 131
3 88 89 133
3 88 133 132
3 89 90 134
3 89 134 133
3 90 91 135
3 90 135 134
3 91 92 136
3 91 136 135
3 92 93 137
3 92 137 136
3 93 94 138
3 93 138 137
3 94 95 139
3 94 139 138
3 95 96 140
3 95 140 139
3 96 97 141
3 96 141 140
3 97 98 142
3 97 142 141
3 98 99 143
3 98 143 142
3 99 100 144
3 99 144 143
3 100 101 145
3 100 145 144
3 101 102 146
3 101 146 145
3 102 103 147
3 102 147 146
3 103 104 148
3 103 148 147
3 104 105 149
3 104 149 148
3 105 106 150
3 105 150 149
3 106 107 151
3 106 151 150
3 107 108 152
3 107 152 151
3 108 109 153
3 108 153 152
3 109 110 154
3 109 154 153
3 110 111 155
3 110 155 154
3 111 112 156
3 111 156 155
3 112 113 157
3 112 157 156
3 113 114 158
3 113 158 157
3 114 115 159
3 114 159 158
3 115 116 160
3 115 160 159
3 116 117 161
3 116 161 160
3 117 118 162
3 117 162 161
3 118 119 163
3 118 163 162
3 119 120 164
3 119 164 163
3 120 121 165
3 120 165 164
3 121 122 166
3 121 166 165
3 122 123 167
3 122 167 166
3 123 124 168
3 123 168 167
3 124 125 169
3 124 169 168
3 125 126 170
3 125 170 169
3 126 127 171
3 126 171 170
3 127 128 172
3 127 172 171
3 128 129 173
3 128 173 172
3 129 130 174
3 129 174 173
3 130 131 175
3 130 175 174
3 131 88 132
3 131 132 175
3 132 133 177
3 132 177 176
3 133 134 178
3 133 178 177
3 134 135 179
3 134 179 178
3 135 136 180
3 135 180 179
3 136 137 181
3 136 181 180
3 137 138 182
3 137 182 181
3 138 139 183
3 138 183 182
3 139 140 184
3 139 184 183
3 140 141 185
3 140 185 184
3 141 142 186
3 141 186 185
3 142 143 187
3 142 187 186
3 143 144 188
3 143 188 187
3 144 145 189
3 144 189 188
3 145 146 190
3 145 190 189
3 146 147 191
3 146 191 190
3 147 148 192
3 147 192 191
3 148 149 193
3 148 193 192
3 149 150 194
3 149 194 193
3 150 151 195
3 150 195 194
3 151 152 196
3 151 196 195
3 152 153 197
3 152 197 196
3 153 154 198
3 153 198 197
3 154 155 199
3 154 199 198
3 155 156 200
3 155 200 199
3 156 157 201
3 156 201 200
3 157 158 202
3 157 202 201
3 158 159 203
3 158 203 202
3 159 160 204
3 159 204 203
3 160 161 205
3 160 205 204
3 161 162 206
3 161 206 205
3 162 163 207
3 162 207 206
3 163 164 208
3 163 208 207
3 164 165 209
3 164 209 208
3 165 166 210
3 165 210 209
3 166 167 211
3 166 211 210
3 167 168 212
3 167 212 211
3 168 169 213
3 168 213 212
3 169 170 214
3 169 214 213
3 170 171 215
3 170 215 214
3 171 172 216
3 171 216 215
3 172 173 217
3 172 217 216
3 173 174 218
3 173 218 217
3 174 175 219
3 174 219 218
3 175 132 176
3 175 176 219
3 176 177 221
3 176 221 220
3 177 178 222
3 177 222 221
3 178 179 223
3 178 223 222
3 179 180 224
3 179 224 223
3 180 181 225
3 180 225 224
3 181 182 226
3 181 226 225
3 182 183 227
3 182 227 226
3 183 184 228
3 183 228 227
3 184 185 229
3 184 229 228
3 185 186 230
3 185 230 229
3 186 187 231
3 186 231 230
3 187 188 232
3 187 232 231
3 188 189 233
3 188 233 232
3 189 190 234
3 189 234 233
3 190 191 235
3 190 235 234
3 191 192 236
3 191 236 235
3 192 193 237
3 192 237 236
3 193 194 238
3 193 238 237
3 194 195 239
3 194 239 238
3 195 196 240
3 195 240 239
3 196 197 241
3 196 241 240
3 197 198 242
3 197 242 241
3 198 199 243
3 198 243 242
3 199 200 244
3 199 244 243
3 200 201 245
3 200 245 244
3 201 202 246
3 201 246 245
3 202 203 247
3 202 247 246
3 203 204 248
3 203 248 247
3 204 205 249
3 204 249 248
3 205 206 250
3 205 250 249
3 206 207 251
3 206 251 250
3 207 208 252
3 207 252 251
3 208 209 253
3 208 253 252
3 209 210 254
3 209 254 253
3 210 211 255
3 210 255 254
3 211 212 256
3 211 256 255
3 212 213 257
3 212 257 256
3 213 214 258
3 213 258 257
3 214 215 259
3 214 259 258
3 215 216 260
3 215 260 259
3 216 217 261
3 216 261 260
3 217 218 262
3 217 262 261
3 218 219 263
3 218 263 262
3 219 176 220
3 219 220 263
3 220 221 265
3 220 265 264
3 221 222 266
3 221 266 265
3 222 223 267
3 222 267 266
3 223 224 268
3 223 268 267
3 224 225 269
3 224 269 268
3 225 226 270
3 225 270 269
3 226 227 271
3 226 271 270
3 227 228 272
3 227 272 271
3 228 229 273
3 228 273 272
3 229 230 274
3 229 274 273
3 230 231 275
3 230 275 274
3 231 232 276
3 231 276 275
3 232 233 277
3 232 277 276
3 233 234 278
3 233 278 277
3 234 235 279
3 234 279 278
3 235 236 280
3 235 280 279
3 236 237 281
3 236 281 280
3 237 238 282
3 237 282 281
3 238 239 283
3 238 283 282
3 239 240 284
3 239 284 283
3 240 241 285
3 240 285 284
3 241 242 286
3 241 286 285
3 242 243 287
3 242 287 286
3 243 244 288
3 243 288 287
3 244 245 289
3 244 289 288
3 245 246 290
3 245 290 289
3 246 247 291
3 246 291 290
3 247 248 292
3 247 292 291
3 248 249 293
3 248 293 292
3 249 250 294
3 249 294 293
3 250 251 295
3 250 295 294
3 251 252 296
3 251 296 295
3 252 253 297
3 252 297 296
3 253 254 298
3 253 298 297
3 254 255 299
3 254 299 298
3 255 256 300
3 255 300 299
3 256 257 301
3 256 301 300
3 257 258 302
3 257 302 301
3 258 259 303
3 258 303 302
3 259 260 304
3 259 304 303
3 260 261 305
3 260 305 304
3 261 262 306
3 261 306 305
3 262 263 307
3 262 307 306
3 263 220 264
3 263 264 307
3 264 265 309
3 264 309 308
3 265 266 310
3 265 310 309
3 266 267 311
3 266 311 310
3 267 268 312
3 267 312 311
3 268 269 313
3 268 313 312
3 269 270 314
3 269 314 313
3 270 271 315
3 270 315 314
3 271 272 316
3 271 316 315
3 272 273 317
3 272 317 316
3 273 274 318
3 273 318 317
3 274 275 319
3 274 319 318
3 275 276 320
3 275 320 319
3 276 277 321
3 276 321 320
3 277 278 322
3 277 322 321
3 278 279 323
3 278 323 322
3 279 280 324
3 279 324 323
3 280 281 325
3 280 325 324
3 281 282 326
3 281 326 325
3 282 283 327
3 282 327 326
3 283 284 328
3 283 328 327
3 284 285 329
3 284 329 328
3 285 286 330
3 285 330 329
3 286 287 331
3 286 331 330
3 287 288 332
3 287 332 331
3 288 289 333
3 288 333 332
3 289 290 334
3 289 334 333
3 290 291 335
3 290 335 334
3 291 292 336
3 291 336 335
3 292 293 337
3 292 337 336
3 293 294 338
3 293 338 337
3 294 295 339
3 294 339 338
3 295 296 340
3 295 340 339
3 296 297 341
3 296 341 340
3 297 298 342
3 297 342 341
3 298 299 343
3 298 343 342
3 299 300 344
3 299 344 343
3 300 301 345
3 300 345 344
3 301 302 346
3 301 346 345
3 302 303 347
3 302 347 346
3 303 304 348
3 303 348 347
3 304 305 349
3 304 349 348
3 305 306 350
3 305 350 349
3 306 307 351
3 306 351 350
3 307 264 308
3 307 308 351
3 308 309 353
3 308 353 352
3 309 310 354
3 309 354 353
3 310 311 355
3 310 355 354
3 311 312 356
3 311 356 355
3 312 313 357
3 312 357 356
3 313 314 358
3 313 358 357
3 314 315 359
3 314 359 358
3 315 316 360
3 315 360 359
3 316 317 361
3 316 361 360
3 317 318 362
3 317 362 361
3 318 319 363
3 318 363 362
3 319 320 364
3 319 364 363
3 320 321 365
3 320 365 364
3 321 322 366
3 321 366 365
3 322 323 367
3 322 367 366
3 323 324 368
3 323 368 367
3 324 325 369
3 324 369 368
3 325 326 370
3 325 370 369
3 326 327 371
3 326 371 370
3 327 328 372
3 327 372 371
3 328 329 373
3 328 373 372
3 329 330 374
3 329 374 373
3 330 331 375
3 330 375 374
3 331 332 376
3 331 376 375
3 332 333 377
3 332 377 376
3 333 334 378
3 333 378 377
3 334 335 379
3 334 379 378
3 335 336 380
3 335 380 379
3 336 337 381
3 336 381 380
3 337 338 382
3 337 382 381
3 338 339 383
3 338 383 382
3 339 340 384
3 339 384 383
3 340 341 385
3 340 385 384
3 341 342 386
3 341 386 385
3 342 343 387
3 342 387 386
3 343 344 388
3 343 388 387
3 344 345 389
3 344 389 388
3 345 346 390
3 345 390 389
3 346 347 391
3 346 391 390
3 347 348 392
3 347 392 391
3 348 349 393
3 348 393 392
3 349 350 394
3 349 394 393
3 350 351 395
3 350 395 394
3 351 308 352
3 351 352 395
3 352 353 397
3 352 397 396
3 353 354 398
3 353 398 397
3 354 355 399
3 354 399 398
3 355 356 400
3 355 400 399
3 356 357 401
3 356 401 400
3 357 358 402
3 357 402 401
3 358 359 403
3 358 403 402
3 359 360 404
3 359 404 403
3 360 361 405
3 360 405 404
3 361 362 406
3 361 406 405
3 362 363 407
3 362 407 406
3 363 364 408
3 363 408 407
3 364 365 409
3 364 409 408
3 365 366 410
3 365 410 409
3 366 367 411
3 366 411 410
3 367 368 412
3 367 412 411
3 368 369 413
3 368 413 412
3 369 370 414
3 369 414 413
3 370 371 415
3 370 415 414
3 371 372 416
3 371 416 415
3 372 373 417
3 372 417 416
3 373 374 418
3 373 418 417
3 374 375 419
3 374 419 418
3 375 376 420
3 375 420 419
3 376 377 421
3 376 421 420
3 377 378 422
3 377 422 421
3 378 379 423
3 378 423 422
3 379 380 424
3 379 424 423
3 380 381 425
3 380 425 424
3 381 382 426
3 381 426 425
3 382 383 427
3 382 427 426
3 383 384 428
3 383 428 427
3 384 385 429
3 384 429 428
3 385 386 430
3 385 430 429
3 386 387 431
3 386 431 430
3 387 388 432
3 387 432 431
3 388 389 433
3 388 433 432
3 389 390 434
3 389 434 433
3 390 391 435
3 390 435 434
3 391 392 436
3 391 436 435
3 392 393 437
3 392 437 436
3 393 394 438
3 393 438 437
3 394 395 439
3 394 439 438
3 395 352 396
3 395 396 439
